<?xml version="1.0" encoding="UTF-8" standalone="no"?>
<svg
   xmlns:dc="http://purl.org/dc/elements/1.1/"
   xmlns:cc="http://creativecommons.org/ns#"
   xmlns:rdf="http://www.w3.org/1999/02/22-rdf-syntax-ns#"
   xmlns:svg="http://www.w3.org/2000/svg"
   xmlns="http://www.w3.org/2000/svg"
   xmlns:sodipodi="http://sodipodi.sourceforge.net/DTD/sodipodi-0.dtd"
   xmlns:inkscape="http://www.inkscape.org/namespaces/inkscape"
   sodipodi:docname="bc-BACK.svg"
   inkscape:version="1.0beta2 (2b71d25, 2019-12-03)"
   width="85mm"
   height="55mm"
   viewBox="0 0 85 55"
   version="1.1"
   id="SVGRoot">
  <defs
     id="defs106">
    <clipPath
       clipPathUnits="userSpaceOnUse"
       id="clipPath167">
      <path
         d="M 0,305.297 H 360.263 V 0 H 0 Z"
         id="path165"
         inkscape:connector-curvature="0" />
    </clipPath>
    <clipPath
       id="clipPath531"
       clipPathUnits="userSpaceOnUse">
      <path
         inkscape:connector-curvature="0"
         id="path529"
         d="M 0,595.276 H 841.89 V 0 H 0 Z" />
    </clipPath>
  </defs>
  <sodipodi:namedview
     inkscape:snap-text-baseline="false"
     inkscape:window-maximized="0"
     inkscape:window-y="23"
     inkscape:window-x="0"
     inkscape:window-height="799"
     inkscape:window-width="1440"
     showgrid="false"
     inkscape:document-rotation="0"
     inkscape:current-layer="layer1"
     inkscape:document-units="mm"
     inkscape:cy="132.29607"
     inkscape:cx="200.18365"
     inkscape:zoom="1.3287798"
     inkscape:pageshadow="2"
     inkscape:pageopacity="0.0"
     borderopacity="1.0"
     bordercolor="#666666"
     pagecolor="#ffffff"
     id="base">
    <inkscape:grid
       type="xygrid"
       id="grid869" />
  </sodipodi:namedview>
  <metadata
     id="metadata109">
    <rdf:RDF>
      <cc:Work
         rdf:about="">
        <dc:format>image/svg+xml</dc:format>
        <dc:type
           rdf:resource="http://purl.org/dc/dcmitype/StillImage" />
        <dc:title />
      </cc:Work>
    </rdf:RDF>
  </metadata>
  <g
     id="layer1"
     inkscape:groupmode="layer"
     inkscape:label="Layer 1">
    <g
       transform="matrix(0.07414659,0,0,-0.07483888,11.407282,49.348032)"
       clip-path="url(#clipPath531)"
       id="g527">
      <g
         transform="translate(710.8868,292.5705)"
         id="g533">
        <path
           inkscape:connector-curvature="0"
           id="path535"
           style="fill:#ffffff;fill-opacity:1;fill-rule:nonzero;stroke:none"
           d="m 0,0 c 0,-158.857 -128.78,-287.638 -287.638,-287.638 -158.858,0 -287.637,128.781 -287.637,287.638 0,158.858 128.779,287.638 287.637,287.638 C -128.78,287.638 0,158.858 0,0" />
      </g>
      <g
         transform="translate(312.4307,326.5466)"
         id="g537">
        <path
           inkscape:connector-curvature="0"
           id="path539"
           style="fill:#231f20;fill-opacity:1;fill-rule:nonzero;stroke:none"
           d="M 0,0 C 3.099,1.679 5.865,1.693 8.66,1.46 9.093,1.424 9.659,1.341 9.685,0.711 9.705,0.204 9.529,-0.177 8.9,-0.219 6.148,-0.404 3.392,-0.956 0,0" />
      </g>
      <g
         transform="translate(323.7422,322.8474)"
         id="g541">
        <path
           inkscape:connector-curvature="0"
           id="path543"
           style="fill:#231f20;fill-opacity:1;fill-rule:nonzero;stroke:none"
           d="M 0,0 C -2.331,-2.756 -6.948,-5.181 -9.757,-5.221 -6.113,-1.976 -2.953,-0.248 0,0" />
      </g>
      <g
         transform="translate(473.0303,412.532)"
         id="g545">
        <path
           inkscape:connector-curvature="0"
           id="path547"
           style="fill:#231f20;fill-opacity:1;fill-rule:nonzero;stroke:none"
           d="m 0,0 c -0.8,-1.573 -2.314,-1.691 -3.532,-2.312 -1.748,-0.889 -3.557,-1.558 -5.451,-2.029 -0.396,-0.098 -0.925,-0.61 -1.11,0.163 -0.115,0.483 0.243,0.957 0.708,1.098 C -6.297,-2.143 -3.437,-0.51 0,0" />
      </g>
      <g
         transform="translate(459.3867,412.3996)"
         id="g549">
        <path
           inkscape:connector-curvature="0"
           id="path551"
           style="fill:#231f20;fill-opacity:1;fill-rule:nonzero;stroke:none"
           d="M 0,0 C 2.133,2.871 4.501,5.458 8.376,6.23 5.76,3.94 3.144,1.651 0.527,-0.639 0.352,-0.426 0.176,-0.213 0,0" />
      </g>
      <g
         transform="translate(414.5655,426.8689)"
         id="g553">
        <path
           inkscape:connector-curvature="0"
           id="path555"
           style="fill:#231f20;fill-opacity:1;fill-rule:nonzero;stroke:none"
           d="m 0,0 c -1.629,0.112 -2.843,0.847 -3.945,1.693 -1.04,0.8 -1.42,1.732 0.136,2.518 0.431,0.217 1.151,0.366 0.878,1.152 -0.197,0.568 -0.702,0.831 -1.21,1.062 -0.864,0.392 -1.73,0.084 -2.539,-0.135 -0.789,-0.214 -1.634,-0.588 -2.18,0.143 -0.706,0.945 0.349,1.553 0.773,2.236 0.452,0.731 1.097,1.348 1.505,2.098 0.431,0.793 1.131,1.92 -0.041,2.443 -0.852,0.381 -2.004,0.072 -2.606,-1.037 -0.523,-0.964 -1.147,-1.872 -1.757,-2.856 -1.039,2.04 -0.119,4.308 3.657,9.252 2.833,3.709 3.867,4.413 6.098,3.949 -2.3,-2.215 -4.428,-4.433 -5.986,-7.167 3.29,-0.91 3.878,-2.007 2.632,-5.185 C -5.003,9.101 -4.981,8.81 -3.792,8.461 -0.546,7.509 0.074,6.025 -1.399,3.155 -1.697,2.577 -1.879,2.158 -1.219,1.799 -0.552,1.437 -0.251,0.857 0,0" />
      </g>
      <g
         transform="translate(307.3921,392.2507)"
         id="g557">
        <path
           inkscape:connector-curvature="0"
           id="path559"
           style="fill:#231f20;fill-opacity:1;fill-rule:nonzero;stroke:none"
           d="M 0,0 C 0.427,1.287 0.916,2.039 1.887,2.354 5.995,3.687 10.079,3.606 14.097,2.014 14.672,1.786 15.682,1.552 15.322,0.621 15.046,-0.095 14.233,0.258 13.629,0.358 13.242,0.422 12.854,0.568 12.47,0.558 11.123,0.52 10.209,-0.201 9.986,-1.5 c -0.224,-1.306 0.87,-1.805 1.831,-2.073 1.284,-0.358 2.633,-0.298 3.981,-0.219 1.428,0.084 2.402,-0.197 1.278,-2.025 -2.427,-3.949 -2.066,-5.22 1.949,-7.811 -1.163,-1.074 -2.276,-0.845 -3.337,0.02 -2.759,2.247 -1.802,5.047 -1.092,7.797 C 8.159,-4.647 7.1,-3.288 9.292,0.98 5.23,1.443 3.076,1.241 0,0" />
      </g>
      <g
         transform="translate(388.2583,369.9904)"
         id="g561">
        <path
           inkscape:connector-curvature="0"
           id="path563"
           style="fill:#231f20;fill-opacity:1;fill-rule:nonzero;stroke:none"
           d="M 0,0 C -1.1,-0.635 -2.491,-1.633 -3.397,-0.328 -4.084,0.663 -2.821,1.7 -1.85,2.129 -0.66,2.653 0.973,4.004 1.874,2.778 2.757,1.578 1.107,0.639 0,0" />
      </g>
      <g
         transform="translate(359.1519,336.9455)"
         id="g565">
        <path
           inkscape:connector-curvature="0"
           id="path567"
           style="fill:#231f20;fill-opacity:1;fill-rule:nonzero;stroke:none"
           d="m 0,0 c -0.033,-2.038 1.204,-4.169 -0.095,-6.189 -0.462,-0.718 -1.482,-0.243 -1.623,0.311 -0.527,2.065 -1.127,4.236 0.037,6.252 C -1.304,1.026 -0.532,0.579 0,0" />
      </g>
      <g
         transform="translate(362.7569,339.6496)"
         id="g569">
        <path
           inkscape:connector-curvature="0"
           id="path571"
           style="fill:#231f20;fill-opacity:1;fill-rule:nonzero;stroke:none"
           d="M 0,0 C 0.588,-0.23 0.782,-0.243 0.832,-0.334 1.894,-2.288 2.433,-4.317 1.31,-6.413 1.051,-6.896 0.152,-6.994 -0.07,-6.511 -1.07,-4.34 -0.589,-2.22 0,0" />
      </g>
      <g
         transform="translate(431.2666,381.6389)"
         id="g573">
        <path
           inkscape:connector-curvature="0"
           id="path575"
           style="fill:#231f20;fill-opacity:1;fill-rule:nonzero;stroke:none"
           d="M 0,0 C 0.418,-0.337 0.78,-0.482 0.876,-0.729 1.757,-3 3.265,-5.246 1.65,-7.742 1.315,-8.26 0.418,-8.222 0.069,-7.567 -1.25,-5.096 -1.321,-2.601 0,0" />
      </g>
      <g
         transform="translate(437.3867,386.7976)"
         id="g577">
        <path
           inkscape:connector-curvature="0"
           id="path579"
           style="fill:#231f20;fill-opacity:1;fill-rule:nonzero;stroke:none"
           d="M 0,0 C 0.418,-0.337 0.78,-0.481 0.876,-0.729 1.757,-2.999 3.265,-5.246 1.65,-7.742 1.315,-8.26 0.418,-8.221 0.069,-7.566 -1.25,-5.096 -1.321,-2.601 0,0" />
      </g>
      <g
         transform="translate(353.628,359.8957)"
         id="g581">
        <path
           inkscape:connector-curvature="0"
           id="path583"
           style="fill:#231f20;fill-opacity:1;fill-rule:nonzero;stroke:none"
           d="m 0,0 z m 0,0 z m 2.432,-3.547 c -3.555,0 -4.757,1.261 -5.095,1.769 -0.49,0.736 2.043,2.533 2.56,1.916 0.18,-0.13 1.761,-1.105 7.145,0.133 5.612,1.291 6.327,4.712 6.375,7.173 0.018,0.873 2.421,2.139 2.432,2.139 C 16.733,9.565 16.637,8.264 16.619,7.38 16.483,0.578 11.727,-1.937 7.76,-2.85 5.566,-3.354 3.82,-3.547 2.432,-3.547" />
      </g>
      <g
         transform="translate(412.5098,394.5124)"
         id="g585">
        <path
           inkscape:connector-curvature="0"
           id="path587"
           style="fill:#231f20;fill-opacity:1;fill-rule:nonzero;stroke:none"
           d="m 0,0 z m 0,0 z m 0,0 z m -10.712,-12.495 c -2.749,-0.001 -4.932,1.033 -5.917,1.192 -2.111,0.341 0.542,2.953 2.569,2.61 1.489,-0.252 6.58,-2.151 10.805,2.706 3.097,3.56 3.347,5.591 3.177,6.11 -0.404,0.71 2.2,2.431 2.706,1.706 0.383,-0.549 2.019,-3.611 -3.467,-9.917 -2.997,-3.446 -6.741,-4.407 -9.873,-4.407" />
      </g>
      <g
         transform="translate(389.2989,355.1648)"
         id="g589">
        <path
           inkscape:connector-curvature="0"
           id="path591"
           style="fill:#231f20;fill-opacity:1;fill-rule:nonzero;stroke:none"
           d="m 0,0 c -1.286,0 -2.345,0.208 -2.947,0.514 -0.788,0.4 -2.457,0.302 -2.056,1.091 0.4,0.789 2.719,2.163 3.506,1.764 0.715,-0.288 5.372,-0.566 8.152,2.629 3.145,3.615 3.778,4.607 3.803,4.648 0.465,0.741 3.004,1.893 3.751,1.438 C 14.957,11.632 13.65,9.761 13.208,9.005 13.103,8.825 12.408,7.732 9.071,3.896 6.502,0.943 2.737,0 0,0" />
      </g>
      <g
         transform="translate(322.668,405.1711)"
         id="g593">
        <path
           inkscape:connector-curvature="0"
           id="path595"
           style="fill:#231f20;fill-opacity:1;fill-rule:nonzero;stroke:none"
           d="M 0,0 C 2.228,-0.186 4.455,-0.46 6.679,-0.757 7.152,-0.82 7.623,-0.901 8.093,-0.991 7.147,3.366 4.674,15.896 -1.424,24.884 -1.617,16.559 -1.134,8.234 0,0 m 252.002,-101.592 c -0.051,0.401 -0.147,0.695 -0.28,0.906 -0.499,0.795 -1.51,0.439 -2.566,0.236 -0.497,-0.095 -0.884,-0.17 -1.046,-0.214 -1.458,-0.39 -2.916,-0.782 -4.369,-1.19 -0.511,-0.143 -1.376,-0.22 -1.8,-0.529 -3.481,-2.537 -7.064,-4.92 -10.732,-7.154 -0.53,-1.459 -1.119,-2.894 -1.757,-4.307 3.344,1.588 6.631,3.292 9.853,5.114 -14.205,-32.184 -33.809,-71.832 -107.499,-84.674 -16.974,-2.959 -45.79,-2.529 -62.351,2.22 -32.836,9.417 -62.112,29.892 -82.093,57.613 -21.989,30.507 -32.142,68.929 -27.995,106.314 2.136,19.257 8.012,37.94 17.042,54.953 -2.809,0.085 -5.397,1.885 -6.339,4.707 -0.196,0.588 -0.3,1.183 -0.336,1.775 -10.383,-16.473 -17.675,-34.891 -21.199,-54.23 -6.995,-38.392 1.316,-78.841 22.744,-111.444 19.393,-29.508 49.025,-51.655 82.743,-62.09 16.896,-5.228 34.683,-7.504 52.351,-6.658 8.913,0.426 17.782,1.645 26.486,3.608 10.693,2.411 21.44,5.273 31.733,9.072 36.534,13.485 66.939,40.915 84.166,75.834 1.498,3.036 3.692,6.618 3.244,10.138 M -17.497,38.178 c 6.42,10.105 14.012,19.476 22.645,27.843 -2.322,-7.64 -4.023,-15.419 -5.121,-23.259 3.527,0.832 7.559,1.421 12.037,1.551 0.873,6.606 2.173,13.157 3.889,19.598 0.78,2.925 6.922,15.445 -0.151,14.083 -0.5,-0.096 -0.888,-0.172 -1.049,-0.215 -1.458,-0.391 -2.916,-0.782 -4.369,-1.19 -0.509,-0.143 -1.381,-0.22 -1.8,-0.529 -13.251,-9.773 -24.779,-21.629 -34.21,-34.951 0.02,0.007 0.038,0.016 0.058,0.023 3.111,1.038 6.435,-0.267 8.071,-2.954 M 12.489,1.072 9.15,-1.211 c 1.031,-0.223 2.058,-0.466 3.093,-0.66 0.384,-0.072 0.631,-0.167 0.78,-0.294 -0.188,1.078 -0.369,2.156 -0.534,3.237 m 1.119,-6.35 c -0.074,0.376 -0.157,0.751 -0.228,1.127 -0.085,0.449 -0.162,0.9 -0.242,1.349 -0.062,-0.178 -0.169,-0.385 -0.318,-0.631 -1.257,-2.083 -2.461,-4.216 -2.763,-6.831 0.681,0.924 1.402,1.821 2.036,2.777 0.494,0.745 1.001,1.48 1.515,2.209" />
      </g>
      <g
         transform="translate(440.3179,409.6194)"
         id="g597">
        <path
           inkscape:connector-curvature="0"
           id="path599"
           style="fill:#231f20;fill-opacity:1;fill-rule:nonzero;stroke:none"
           d="m 0,0 c -0.089,-0.009 -0.179,-0.017 -0.269,-0.023 0.1,0.016 0.2,0.032 0.3,0.05 C 0.023,0.017 0.01,0.009 0,0 m -56.374,20.99 c -4.755,-0.446 -9.332,-1.335 -13.771,-2.654 -0.67,0.103 -1.339,0.212 -2.004,0.263 -1.735,0.131 -3.481,0.114 -5.209,-0.096 -1.126,-0.136 -2.232,-0.369 -3.328,-0.646 0.072,0.013 0.142,0.023 0.213,0.035 -0.774,-0.173 -1.543,-0.386 -2.306,-0.643 -0.39,-0.132 -0.812,-0.264 -1.233,-0.416 0.212,0.11 0.432,0.21 0.661,0.302 -0.996,-0.281 -2.012,-0.613 -2.84,-1.15 -2.033,-1.317 -0.58,-4.04 -2.438,-4.985 -2.245,-0.525 -4.868,-1.106 -6.069,-3.059 -0.701,-1.14 -1.218,-2.39 -1.704,-3.648 -3.429,-2.814 -6.065,-5.651 -8.059,-8.679 -0.787,0.249 -1.583,0.568 -2.364,0.865 0.215,1.931 0.617,3.736 1.299,4.967 0.17,0.305 0.371,0.694 0.609,1.154 1.835,3.544 6.134,11.844 14.982,17.239 8.624,5.258 20.225,7.122 24.602,7.444 4.151,0.977 8.733,-3.259 10.134,-4.269 -0.338,-0.765 -0.721,-1.475 -1.175,-2.024 M -108.327,2.998 c -0.375,-0.677 -0.689,-1.5 -0.947,-2.415 -2.525,10.262 -8.235,27.491 -21.458,30.751 3.08,2.009 9.573,5.138 18.738,6.4 9.596,1.322 24.151,0.805 41.723,-7.844 -5.914,-0.965 -14.469,-3.134 -21.33,-7.317 -9.614,-5.861 -14.201,-14.719 -16.159,-18.501 -0.222,-0.428 -0.409,-0.79 -0.567,-1.074 M -130.859,-2.3 c 2.146,0.381 4.385,0.572 6.643,0.607 -2.21,-0.092 -4.426,-0.3 -6.643,-0.607 m 90.918,-173.255 c -0.794,-0.041 -1.592,-0.151 -2.394,-0.353 0.809,0.213 1.594,0.333 2.394,0.353 M -136.293,27.77 c -0.633,-1.267 -1.721,-2.211 -3.064,-2.659 -1.342,-0.447 -2.779,-0.347 -4.045,0.286 -1.267,0.633 -2.211,1.721 -2.659,3.064 -0.924,2.772 0.578,5.779 3.35,6.704 0.554,0.185 1.118,0.273 1.673,0.273 2.218,0 4.291,-1.405 5.031,-3.623 0.448,-1.342 0.346,-2.779 -0.286,-4.045 M 44.809,-33.282 c -4.282,3.263 -8.614,6.474 -12.647,10.048 -1.926,1.707 -3.694,3.571 -5.591,5.307 -1.821,1.666 -3.894,3.253 -5.206,5.385 -2.125,3.453 -3.15,6.584 -7.329,8.054 -0.861,0.303 -1.743,0.457 -2.63,0.652 -1.424,0.313 -1.132,0.36 -1.896,1.451 -1.101,1.57 -2.873,1.823 -4.598,2.346 C 3.433,0.41 3.314,1.771 2.06,2.743 0.896,3.645 -0.66,4.219 -1.092,5.779 c -0.262,0.948 -0.02,1.197 -0.773,1.879 -0.817,0.739 -2.163,0.943 -3.192,1.05 -2.299,0.238 -4.304,0.806 -5.545,2.956 -1.188,2.059 -0.831,4.851 -0.99,7.145 -0.198,2.845 -0.48,5.688 -0.958,8.501 -0.856,5.044 -2.359,10.123 -4.979,14.55 -2.779,4.695 -7.693,8.371 -13.408,7.423 -2.519,-0.417 -4.974,-1.366 -7.132,-2.711 -4.77,-2.973 -8.563,-7.182 -11.509,-11.934 -1.512,-2.439 -2.817,-5.001 -4.04,-7.596 -0.13,-0.274 -0.258,-0.591 -0.388,-0.93 -0.188,0.129 -0.376,0.258 -0.573,0.389 -1.353,0.901 -6.005,3.853 -9.105,4.025 -0.219,0.013 -0.52,0.012 -0.879,0 -14.952,8.278 -29.81,11.903 -44.223,10.773 -11.325,-0.886 -20.091,-4.677 -24.44,-7.814 -1.721,4.021 -6.275,6.125 -10.499,4.718 -4.446,-1.484 -6.857,-6.309 -5.373,-10.755 0.718,-2.155 2.233,-3.9 4.264,-4.915 1.198,-0.598 2.491,-0.901 3.792,-0.901 0.905,0 1.814,0.147 2.698,0.442 2.155,0.718 3.9,2.233 4.915,4.264 0.341,0.683 0.577,1.396 0.724,2.124 6.036,-0.999 11.14,-5.675 15.184,-13.933 2.906,-5.934 4.614,-12.374 5.617,-16.743 -1.838,0.325 -3.692,0.554 -5.555,0.674 -4.837,0.312 -9.966,0.126 -14.716,-0.898 -0.569,-0.123 -1.126,-0.268 -1.672,-0.429 -0.655,-0.182 -1.268,-0.4 -1.844,-0.65 -3.678,-1.523 -6.436,-4.211 -6.866,-8.771 -0.967,-10.263 6.871,-19.987 13.454,-26.945 3.381,-3.574 6.941,-6.398 11.09,-9.004 1.44,-0.905 2.195,-2.306 1.792,-4.064 -0.399,-1.743 -2.355,-2.838 -1.781,-4.831 0.523,-1.814 2.544,-2.003 1.933,-3.966 -0.356,-1.143 -0.833,-1.974 -0.307,-3.196 0.486,-1.132 1.829,-1.703 1.783,-3.039 -0.074,-2.147 -1.97,-3.599 -1.094,-5.962 0.374,-1.005 1.096,-1.57 1.13,-2.711 0.034,-1.106 -0.393,-2.282 -0.477,-3.39 -0.149,-1.937 0.066,-3.923 0.943,-5.682 0.503,-1.009 1.447,-1.72 1.96,-2.665 0.608,-1.12 0.359,-2.188 0.554,-3.488 0.355,-2.354 1.459,-4.516 2.184,-6.762 0.869,-2.695 1.466,-5.507 2.059,-8.274 4.184,-19.524 2.818,-41.744 16.772,-57.661 6.505,-7.419 15.538,-12.554 25.257,-14.295 4.785,-0.856 9.712,-0.89 14.499,-0.023 0.789,0.142 1.558,0.338 2.325,0.523 1.614,0.393 3.233,0.827 4.83,1.407 0.192,0.069 0.377,0.127 0.564,0.187 0.159,0.046 0.319,0.089 0.479,0.134 3.962,0.703 7.807,-1.085 11.827,-0.803 1.817,0.128 3.6,0.548 5.345,1.058 4.606,1.348 10.526,4.577 13.227,9.138 -1.172,0.574 -2.361,1.163 -3.567,1.766 -0.32,-1.437 -2.106,-3.395 -3.529,-4.436 -0.873,0.426 -1.488,1.649 -2.114,2.267 -1.198,1.18 -2.371,1.754 -4.045,2.007 -0.101,0.015 -0.315,-0.058 -0.553,-0.148 -0.331,-0.089 -0.662,-0.178 -0.993,-0.267 0.041,-0.006 0.08,-0.015 0.121,-0.021 -0.054,-0.004 -0.098,-0.001 -0.121,0.021 1.389,-1.309 3.229,-2.618 4.238,-4.281 0.897,-1.48 0.088,-1.991 -1.344,-2.616 -0.77,-0.335 -1.579,-0.619 -2.412,-0.849 -0.166,-0.045 -0.333,-0.086 -0.501,-0.128 -3.628,-0.9 -7.663,-0.779 -11.016,0.669 -1.103,0.476 -1.81,1.317 -2.913,1.327 0.043,0.04 0.091,0.078 0.146,0.114 -0.176,-0.048 -0.352,-0.094 -0.528,-0.141 -0.014,-0.003 -0.027,-10e-4 -0.041,-0.004 -0.173,-0.031 -0.317,-0.076 -0.45,-0.128 -0.176,-0.047 -0.351,-0.095 -0.527,-0.142 0.072,0.001 0.141,-0.01 0.21,-0.021 -0.972,-0.648 -0.619,-2.03 -2.021,-2.641 -14.829,-3.648 -29.96,0.448 -40.733,11.331 -6.073,6.135 -9.838,13.567 -11.803,21.936 -2.149,9.147 -2.826,18.628 -4.577,27.86 -0.99,5.22 -1.789,11.093 -4.012,15.958 -0.195,0.427 -0.802,1.216 -0.705,1.69 0.166,0.806 1.142,0.539 1.102,1.375 -0.032,0.634 -1.403,1.43 -1.831,1.868 -0.509,0.52 -0.905,1.054 -1.234,1.641 1.684,-0.587 3.363,-1.017 5.228,-0.642 0.492,0.098 0.987,0.244 1.473,0.398 0.293,0.092 0.902,0.291 0.902,0.291 -2.538,2.272 -6.186,2.654 -8.533,5.264 -1.923,2.139 -2.295,4.965 -1.932,7.729 0.281,2.139 0.857,4.26 1.317,6.364 0.11,0.5 0.219,1 0.328,1.5 0.289,0.569 0.112,0.708 -0.532,0.417 -0.122,0.01 -0.266,-0.084 -0.385,-0.096 -0.344,-0.033 -0.634,-0.127 -0.901,-0.249 -0.087,-0.023 -0.174,-0.046 -0.261,-0.069 0.045,0.005 0.082,0.008 0.121,0.011 -0.213,-0.111 -0.405,-0.249 -0.586,-0.4 0.331,1.511 0.807,2.972 1.422,4.407 0.327,0.763 1.182,1.906 -0.039,2.197 0.014,0.006 0.031,0.015 0.046,0.021 -0.021,-0.006 -0.045,-0.01 -0.065,-0.015 -0.564,0.126 -1.417,-0.332 -2.078,-0.742 -1.096,0.35 -1.025,1.868 -0.378,2.909 0.432,0.696 1.763,1.344 1.877,2.237 0.308,2.417 -5.499,0.705 -3.122,4.191 1.133,1.661 1.7,2.078 1.401,4.284 -0.322,2.375 -0.537,4.647 -0.333,7.056 0.352,4.152 1.913,8.17 2.045,12.318 -0.254,-0.068 -0.509,-0.137 -0.763,-0.205 -0.36,-0.061 -0.723,-0.125 -0.783,-0.209 -2.801,-3.956 -4.032,-8.32 -4.485,-13.027 -5.335,4.374 -10.396,9.119 -14.447,14.735 -3.698,5.125 -8.38,12.814 -6.504,19.446 0.968,3.422 4.131,4.753 7.397,5.336 4.25,0.759 8.655,0.617 12.934,0.228 1.991,-0.181 3.988,-0.401 5.966,-0.696 0.936,-0.14 1.86,-0.324 2.786,-0.519 0.707,-0.15 2.83,-0.234 3.331,-0.747 0.817,-0.836 -0.311,-1.935 -0.797,-2.811 -0.959,-1.728 -1.637,-3.467 -1.942,-5.429 0.257,0.069 0.804,0.215 0.819,0.219 0.333,0.049 0.657,0.101 0.727,0.195 2.541,3.392 4.825,6.958 7.544,10.219 1.303,1.562 2.917,2.956 4.132,4.573 0.824,1.097 0.777,2.563 1.73,3.517 0.917,0.917 2.422,1.116 3.565,1.627 1.737,0.776 0.596,1.096 -0.88,1.37 -0.551,0.037 -1.096,0.121 -1.633,0.252 0.221,0.189 0.442,0.378 0.663,0.567 0.556,0.745 1.983,1.321 2.814,1.678 1.94,0.836 4.04,1.127 6.095,1.547 0.128,0.026 1.523,0.393 1.519,0.409 -0.383,1.516 -2.262,1.169 -2.724,2.348 -0.309,0.787 0.208,1.315 0.968,1.683 0.767,0.252 1.538,0.484 2.311,0.691 0.206,0.043 0.388,0.081 0.53,0.114 4.497,1.072 8.877,-0.17 13.32,0.659 1.42,0.264 2.79,0.738 4.192,1.075 4.428,1.065 8.941,0.641 13.369,1.441 0.258,0.07 0.516,0.138 0.774,0.208 0.257,0.069 0.515,0.138 0.773,0.207 -0.208,-0.038 -0.415,-0.07 -0.623,-0.103 0.28,0.092 0.535,0.156 0.623,0.103 -0.803,0.484 -1.526,0.805 -2.441,0.978 -0.446,0.084 -1.685,-0.004 -2.093,0.251 -1.238,0.771 0.379,2.361 0.968,3.388 1.664,2.902 3.211,5.873 4.958,8.728 3.19,5.216 8.483,12.732 15.168,13.391 6.538,0.645 10.044,-6.125 12.039,-11.27 1.342,-3.464 2.047,-7.05 2.609,-10.707 0.547,-3.566 1.2,-7.083 1.262,-10.689 -2.774,1.003 -5.396,2.154 -8.47,1.962 -0.053,-0.004 -0.183,-0.045 -0.346,-0.093 -0.398,-0.116 -0.8,-0.215 -1.201,-0.322 0.049,0.003 0.098,0.002 0.147,0.004 -0.075,-0.014 -0.135,-0.02 -0.147,-0.004 1.771,-2.3 5.405,-2.964 7.956,-4.152 3.01,-1.403 5.684,-3.75 8.997,-4.244 0.965,-0.143 2.233,-0.127 3.129,-0.58 1.396,-0.706 0.842,-1.335 0.563,-2.632 -0.285,-1.321 0.069,-1.497 1.366,-1.725 0.713,-0.124 1.265,-0.068 1.948,-0.378 0.197,-0.09 1.33,-0.794 1.31,-1.235 -1.299,-0.114 -2.724,-0.236 -3.816,-0.842 -1.451,-0.805 0.548,-0.686 1.413,-0.76 1.136,-0.098 2.277,-0.091 3.415,-0.153 C 2.182,-1.658 3.275,-1.756 4.326,-2.08 4.9,-2.256 6.807,-2.947 6.689,-3.49 6.263,-3.563 5.851,-3.669 5.592,-3.849 5.572,-3.854 5.549,-3.862 5.529,-3.867 c 0.013,10e-4 0.032,0.004 0.046,0.005 -2.228,-1.578 3.976,-2.17 4.786,-2.344 2.572,-0.554 4.984,-1.612 6.189,-4.103 1.482,-3.064 0.994,-7.083 1.098,-10.38 0.244,0.065 0.488,0.13 0.732,0.196 0.371,0.069 0.757,0.142 0.815,0.218 0.416,0.545 0.712,1.09 0.946,1.647 0.082,-0.663 0.18,-1.326 0.426,-1.975 0.046,0.012 0.091,0.025 0.136,0.037 0.367,0.091 1.364,0.292 1.411,0.378 0.194,0.355 0.387,0.709 0.581,1.064 10.848,-12.909 30.184,-23.867 41.316,-38.066 3.41,-2.595 7.029,-5.473 10.705,-8.515 -5.51,13.401 -18.594,23.801 -29.907,32.423 M -82.067,17.49 c 0.459,0.13 0.92,0.251 1.381,0.367 -0.894,-0.155 -1.826,-0.385 -2.665,-0.722 0.437,0.124 0.872,0.239 1.284,0.355" />
      </g>
      <g
         transform="translate(314.5147,215.5471)"
         id="g601">
        <path
           inkscape:connector-curvature="0"
           id="path603"
           style="fill:#231f20;fill-opacity:1;fill-rule:nonzero;stroke:none"
           d="m 0,0 h 0.457 c 3.697,0 6.98,-2.83 10.006,-8.404 1.686,-3.105 2.573,-7.53 2.573,-13.323 0,-8.54 -2.013,-22.102 -5.946,-40.71 -0.5,-2.363 -0.744,-3.602 -0.744,-3.716 v -0.057 c 0,-0.153 0.286,-0.249 0.858,-0.286 2.096,0 9.567,1.258 22.414,3.773 5.297,22.986 8.613,37.317 9.948,42.997 1.181,4.955 2.153,8.538 2.916,10.749 0.457,1.03 0.915,1.544 1.372,1.544 h 0.4 c 0.877,-0.114 2.039,-0.858 3.488,-2.23 1.373,-1.639 2.153,-2.954 2.344,-3.945 0.115,-0.572 0.172,-1.124 0.172,-1.659 0,-3.049 -1.392,-10.539 -4.174,-22.469 -2.211,-9.911 -3.736,-17.154 -4.574,-21.728 l -0.057,-0.286 c 0.229,0 1.486,0.344 3.774,1.029 l 0.743,0.115 c 1.448,0 2.877,-1.449 4.288,-4.345 0.763,-1.906 1.143,-3.508 1.143,-4.803 v -0.458 c 0,-0.877 -0.21,-1.468 -0.628,-1.772 -1.64,-0.839 -5.775,-1.772 -12.408,-2.802 -0.114,0 -0.228,-0.419 -0.343,-1.258 -4.002,-18.105 -7.071,-31.656 -9.205,-40.652 -0.152,-0.877 -0.534,-1.315 -1.144,-1.315 h -0.4 c -1.792,0 -3.374,0.953 -4.745,2.859 -1.945,2.439 -2.917,4.383 -2.917,5.832 0,0.839 0.724,4.345 2.173,10.52 2.553,10.978 4.174,18.22 4.86,21.727 h -0.057 c -1.144,-0.076 -4.059,-0.477 -8.748,-1.2 -4.422,-0.649 -8.139,-0.972 -11.15,-0.972 -1.106,0 -2.058,0.057 -2.858,0.171 -3.088,-13.036 -6.847,-27.01 -11.493,-41.854 -0.526,-1.678 -0.992,-2.514 -1.372,-2.514 -0.268,-0.078 -0.457,-0.116 -0.572,-0.116 h -0.171 c -1.411,0 -2.974,1.183 -4.689,3.545 -1.41,2.173 -2.115,3.851 -2.115,5.032 v 0.115 c 0,0.533 0.768,3.751 2.458,9.605 3.034,10.509 5.812,19.992 8.062,28.532 -3.43,0.952 -6.652,2.687 -9.663,5.202 -1.564,1.487 -2.573,2.649 -3.03,3.488 -1.106,1.753 -1.715,3.164 -1.83,4.231 0,0.266 0.058,0.4 0.172,0.4 0.228,0 1.086,-0.61 2.573,-1.829 1.448,-0.953 3.048,-1.715 4.803,-2.287 2.896,-0.877 5.469,-1.316 7.718,-1.316 h 0.687 c 0.381,0 0.571,0.115 0.571,0.344 2.706,11.701 5.012,22.984 6.918,33.849 1.487,9.109 2.23,15.474 2.23,19.096 0,2.287 -0.286,3.582 -0.857,3.888 L 4.002,-9.605 H 3.945 c -0.992,-0.078 -2.704,-0.802 -5.032,-2.344 -1.278,-0.848 -3.144,-2.536 -5.66,-4.975 0,-0.039 -0.306,-0.344 -0.915,-0.915 -1.944,-2.173 -3.278,-3.908 -4.002,-5.203 -1.258,-1.868 -2.479,-4.212 -3.659,-7.033 -1.449,-3.888 -2.174,-7.472 -2.174,-10.749 0,-2.479 0.425,-4.864 1.43,-7.09 0.435,-0.963 1.41,-2.173 2.859,-3.659 2.401,-2.173 3.602,-3.394 3.602,-3.659 -0.306,-0.267 -0.667,-0.439 -1.086,-0.515 h -0.458 c -1.258,0 -3.068,1.029 -5.431,3.088 -5.109,5.031 -7.662,11.32 -7.662,18.868 v 1.314 c 0,5.947 2.198,12.049 6.347,18.468 1.05,1.626 2.591,3.583 4.688,5.832 1.905,1.945 3.417,3.309 4.517,4.117 C -5.049,-1.382 -2.173,0 0,0" />
      </g>
      <g
         transform="translate(385.3872,196.507)"
         id="g605">
        <path
           inkscape:connector-curvature="0"
           id="path607"
           style="fill:#231f20;fill-opacity:1;fill-rule:nonzero;stroke:none"
           d="m 0,0 h 0.629 c 3.736,0 7.051,-1.925 9.949,-5.774 0.8,-1.259 1.2,-2.231 1.2,-2.916 0,-0.877 -0.685,-1.64 -2.058,-2.288 H 9.377 c -0.229,0 -0.477,0.287 -0.744,0.858 -0.342,0.381 -0.857,0.572 -1.543,0.572 -2.287,0 -5.095,-1.279 -8.234,-4.059 -1.635,-1.45 -2.732,-2.717 -3.43,-3.661 -1.537,-2.078 -2.802,-3.963 -3.717,-5.716 -1.296,-2.365 -2.549,-5.212 -3.659,-8.578 -0.551,-1.671 -0.8,-2.707 -0.8,-3.086 v -0.172 h 0.171 c 0.762,0.114 2.763,1.658 6.003,4.631 2.326,2.401 4.175,4.574 5.547,6.518 1.486,2.249 2.534,4.136 3.145,5.66 1.067,3.202 2.058,5.261 2.972,6.175 0.573,0.458 1.144,0.687 1.716,0.687 h 0.458 c 1.258,0 2.781,-0.821 4.574,-2.458 1.486,-1.601 2.229,-3.051 2.229,-4.346 0,-1.906 -1.44,-6.206 -4.631,-12.75 -1.218,-2.498 -1.925,-3.966 -2.001,-4.46 h 0.115 c 0.457,0 2.344,1.791 5.66,5.374 3.125,3.583 5.951,6.936 8.233,10.234 1.582,2.286 3.059,4.414 4.575,6.29 0.92,1.139 1.601,1.715 2.058,1.715 h 0.229 c 0.532,-0.077 0.8,-0.304 0.8,-0.685 v -0.286 c 0,-1.602 -4.269,-7.957 -12.979,-18.926 -4.317,-5.436 -7.643,-8.119 -9.892,-8.119 -1.296,0 -2.801,0.762 -4.516,2.287 -1.487,1.524 -2.231,3.411 -2.231,5.661 0,0.494 0.057,1.219 0.172,2.172 -1.372,-1.829 -2.936,-3.698 -4.689,-5.603 -2.477,-2.478 -4.021,-3.869 -4.631,-4.174 -0.991,-0.609 -2.058,-0.915 -3.202,-0.915 -2.058,0 -3.926,1.067 -5.603,3.202 -2.364,2.667 -3.545,5.793 -3.545,9.377 0,4.268 1.702,9.192 5.032,14.809 1.036,1.748 2.525,3.649 4.459,5.717 C -8.154,-2.365 -4.002,0 0,0" />
      </g>
      <g
         transform="translate(412.7744,196.507)"
         id="g609">
        <path
           inkscape:connector-curvature="0"
           id="path611"
           style="fill:#231f20;fill-opacity:1;fill-rule:nonzero;stroke:none"
           d="m 0,0 c 1.41,0 3.188,-1.263 5.203,-3.888 1.013,-1.318 1.487,-2.744 1.487,-4.23 0,-0.687 -0.325,-2.345 -0.973,-4.975 L 5.66,-13.607 c 0.038,-0.078 0.077,-0.116 0.115,-0.116 0.762,0.687 1.715,1.774 2.859,3.26 3.353,3.697 5.812,5.546 7.376,5.546 h 0.057 c 1.639,0 3.525,-0.991 5.66,-2.974 1.639,-1.676 2.459,-3.601 2.459,-5.774 v -0.172 c 0,-0.763 -0.058,-1.543 -0.172,-2.344 4.231,5.146 7.28,7.719 9.149,7.719 h 0.057 c 1.638,0 3.506,-0.973 5.603,-2.916 1.791,-1.792 2.687,-3.926 2.687,-6.403 v -0.515 c 0,-2.058 -1.338,-6.607 -3.602,-13.78 -0.406,-1.289 -0.667,-2.363 -0.858,-3.202 h 0.058 c 0.571,0.152 1.886,1.257 3.945,3.317 0.114,0.151 0.851,0.904 2.115,2.344 2.464,2.805 4.536,5.603 6.404,8.233 1.487,2.096 3.221,4.211 5.203,6.347 0.419,0.343 0.705,0.515 0.858,0.515 h 0.171 c 0.458,-0.306 0.686,-0.592 0.686,-0.858 v -0.172 c 0,-0.457 -1.524,-2.764 -4.573,-6.918 -3.431,-4.727 -6.843,-9.054 -10.235,-12.979 -3.508,-3.851 -6.042,-5.775 -7.605,-5.775 -1.182,0 -2.687,0.8 -4.517,2.401 -1.677,1.906 -2.516,3.983 -2.516,6.232 v 0.286 c 0,2.44 1.258,6.88 3.432,13.437 0.603,1.819 0.857,2.859 0.857,3.088 -0.039,0 -0.057,0.018 -0.057,0.056 -0.687,-0.191 -2.479,-1.829 -5.375,-4.917 -0.152,-0.19 -1.506,-1.772 -4.059,-4.745 -1.373,-4.423 -2.364,-7.739 -2.974,-9.949 0,-0.724 -0.362,-1.887 -1.086,-3.488 -0.839,-1.409 -1.735,-2.115 -2.688,-2.115 h -0.171 c -0.725,0 -1.868,0.667 -3.43,2.001 -1.793,1.944 -2.688,4.154 -2.688,6.632 0,2.592 1.262,7.629 3.831,15.095 1.024,2.976 1.544,4.65 1.544,5.031 h -0.057 c -0.496,0 -2.288,-1.62 -5.375,-4.859 -3.393,-4.041 -5.317,-6.747 -5.775,-8.119 -0.61,-1.449 -1.525,-4.46 -2.744,-9.034 -1.144,-3.812 -2.021,-5.813 -2.63,-6.003 -0.496,-0.42 -0.954,-0.63 -1.372,-0.63 -1.068,0.153 -2.288,0.782 -3.66,1.887 -1.715,1.715 -2.573,3.64 -2.573,5.775 v 0.171 c 0,1.22 1.125,6.346 3.374,15.381 2.019,7.966 3.582,13.284 4.688,15.952 C -1.411,-0.553 -0.763,0 0,0" />
      </g>
      <g
         transform="translate(475.0967,196.5647)"
         id="g613">
        <path
           inkscape:connector-curvature="0"
           id="path615"
           style="fill:#231f20;fill-opacity:1;fill-rule:nonzero;stroke:none"
           d="m 0,0 h 0.114 c 3.507,0 6.233,-1.982 8.177,-5.947 0.229,-0.61 0.343,-1.181 0.343,-1.715 v -0.629 c 0,-1.067 -0.382,-1.792 -1.144,-2.173 -0.382,-0.19 -0.686,-0.285 -0.914,-0.285 -0.306,0 -0.687,0.571 -1.144,1.715 -0.077,0.877 -0.229,1.315 -0.458,1.315 H 4.803 C 4.04,-7.796 3.106,-8.311 2.001,-9.263 c -1.449,-1.525 -2.592,-3.412 -3.431,-5.661 -0.953,-2.401 -1.429,-4.745 -1.429,-7.032 0,-2.059 0.567,-5.69 1.544,-10.92 0.362,-1.941 0.515,-3.622 0.515,-5.032 v -0.457 c 0,-3.812 -1.43,-6.348 -4.288,-7.605 -0.801,-0.266 -1.507,-0.4 -2.117,-0.4 h -0.743 c -1.792,0 -3.602,0.648 -5.431,1.943 -1.906,1.716 -3.05,2.993 -3.431,3.831 -0.877,1.181 -1.466,2.496 -1.773,3.946 0,0.379 -0.018,0.571 -0.057,0.571 0,1.067 0.535,1.601 1.601,1.601 h 0.114 c 0.84,0 1.793,-0.915 2.86,-2.745 0.381,-0.381 0.782,-0.571 1.2,-0.571 1.181,0 2.23,0.552 3.145,1.658 0.838,1.182 1.258,2.364 1.258,3.545 0,1.409 -0.477,4.517 -1.43,9.32 -0.457,3.01 -0.686,5.069 -0.686,6.175 0,3.011 0.648,6.233 1.945,9.663 1.791,3.697 4.077,6.098 6.861,7.204 C -1.277,-0.077 -0.686,0 0,0" />
      </g>
      <g
         transform="translate(491.2784,208.6857)"
         id="g617">
        <path
           inkscape:connector-curvature="0"
           id="path619"
           style="fill:#231f20;fill-opacity:1;fill-rule:nonzero;stroke:none"
           d="m 0,0 c 2.706,10.253 4.611,17.268 5.717,21.041 1.105,3.582 2.042,6.381 2.916,8.348 0.513,1.153 1.22,1.715 2.059,1.715 0.991,0 2.287,-0.61 3.888,-1.83 2.21,-2.02 3.316,-3.869 3.316,-5.545 0,-1.297 -1.305,-6.823 -3.888,-16.582 -0.727,-2.744 -1.411,-5.394 -2.059,-7.947 0.915,-0.077 1.867,-0.172 2.859,-0.286 3.088,-0.191 5.718,-0.286 7.891,-0.286 7.661,0 12.387,1.143 14.179,3.431 0.229,0.114 0.362,0.17 0.401,0.17 0.533,0 0.972,-1.353 1.315,-4.058 v -0.744 c 0,-1.983 -1.278,-3.583 -3.831,-4.802 -2.287,-0.953 -5.603,-1.43 -9.949,-1.43 -2.554,0 -7.433,0.4 -14.637,1.201 -4.765,-18.374 -8.043,-31.2 -9.835,-38.48 -0.037,0 -0.057,-0.134 -0.057,-0.4 2.249,1.372 4.962,4.213 8.291,8.404 1.802,2.27 3.862,5.111 6.347,8.406 1.143,1.516 2.458,2.896 3.83,4.231 0.191,0.151 0.363,0.247 0.515,0.285 0.572,-0.343 0.858,-0.686 0.858,-1.029 0,-0.534 -1.354,-2.629 -4.06,-6.289 -2.592,-3.66 -5.779,-7.986 -9.835,-12.751 -1.715,-2.015 -3.45,-3.697 -5.088,-5.145 -1.525,-1.487 -2.897,-2.231 -4.117,-2.231 -1.182,0 -2.764,0.896 -4.745,2.688 -1.677,2.173 -2.516,4.46 -2.516,6.861 0,3.392 2.419,13.765 7.089,31.161 0.501,1.867 0.973,3.66 1.43,5.375 -1.525,0.076 -2.954,0.114 -4.288,0.114 -4.193,0 -6.804,-0.534 -7.833,-1.601 -0.267,-0.382 -0.4,-0.686 -0.4,-0.914 v -0.058 c 0,-0.077 0.133,-0.495 0.4,-1.257 v -0.287 c -0.038,-0.114 -0.076,-0.171 -0.114,-0.171 h -0.057 c -0.458,0.115 -0.981,0.866 -1.487,2.287 -0.243,0.681 -0.362,1.352 -0.401,2.001 v 0.744 c 0,1.943 0.992,3.316 2.973,4.117 C -10.559,-0.515 -7.128,0 -2.63,0 Z" />
      </g>
      <g
         transform="translate(539.1348,205.5988)"
         id="g621">
        <path
           inkscape:connector-curvature="0"
           id="path623"
           style="fill:#231f20;fill-opacity:1;fill-rule:nonzero;stroke:none"
           d="m 0,0 c 0,-0.801 1.944,-1.507 5.832,-2.116 1.219,3.849 1.829,6.898 1.829,9.148 v 0.401 c 0,1.448 -0.305,2.287 -0.914,2.515 H 6.518 C 5.298,9.948 3.353,7.156 0.514,1.657 0.178,1.006 0,0.457 0,0 m -22.642,-26.987 c -0.039,-0.077 -0.077,-0.135 -0.115,-0.172 0.495,-0.268 1.087,-0.344 1.773,-0.229 l 1.029,0.229 c 2.02,0.533 3.964,1.829 5.832,3.888 1.295,1.562 2.116,3.068 2.459,4.517 -1.753,-0.382 -3.969,-1.591 -6.576,-3.717 -0.231,-0.188 -0.473,-0.424 -0.743,-0.685 -0.715,-0.697 -1.353,-1.316 -1.887,-1.888 -0.571,-0.61 -1.163,-1.258 -1.772,-1.943 m 16.01,8.861 c 0.113,-0.419 0.187,-0.819 0.228,-1.2 0.251,-2.327 -0.801,-4.899 -3.202,-7.719 -2.058,-2.211 -4.155,-3.583 -6.29,-4.117 -2.744,-0.839 -5.717,-0.4 -8.919,1.315 -0.992,-1.181 -2.039,-2.801 -3.145,-4.86 -1.563,-3.126 -2.344,-5.527 -2.344,-7.203 v -0.173 c 0,-1.105 0.533,-1.829 1.601,-2.172 0.762,-0.228 1.639,-0.343 2.63,-0.343 3.011,0 6.061,1.123 9.148,3.373 0.61,0.229 1.83,1.295 3.66,3.202 2.63,3.049 4.783,6.102 6.575,9.091 4.03,6.722 7.891,14.503 11.321,23.499 -2.707,0.534 -4.555,1.049 -5.547,1.544 -1.143,0.381 -2.382,1.22 -3.715,2.516 -1.564,1.83 -2.345,3.811 -2.345,5.946 v 0.859 c 0,2.095 0.793,4.353 2.23,6.86 0.475,0.829 1.467,2.021 3.03,3.545 1.716,1.678 3.793,2.517 6.233,2.517 h 0.171 c 1.677,0 2.954,-0.325 3.831,-0.973 2.707,-1.601 4.06,-4.023 4.06,-7.261 0,-2.516 -1.033,-6.319 -3.031,-11.435 -0.193,-0.496 -0.4,-1.049 -0.629,-1.659 2.363,-1.105 4.212,-2.954 5.547,-5.546 0.914,-1.906 1.371,-3.716 1.371,-5.431 v -0.801 c 0,-2.554 -1.066,-6.575 -3.201,-12.064 -2.783,-7.282 -4.88,-13.17 -6.29,-17.667 -0.076,-0.192 -0.152,-0.44 -0.229,-0.745 2.592,2.668 5.047,5.617 7.49,8.749 3.486,4.468 6.316,8.286 8.463,11.493 1.006,1.503 2.001,2.667 2.915,3.545 0.229,0.114 0.381,0.17 0.458,0.17 h 0.286 c 0.381,0 0.667,-0.191 0.858,-0.571 v -0.114 c 0,-0.268 -0.606,-1.357 -1.83,-3.26 -4.252,-6.605 -8.532,-12.931 -12.979,-18.868 -1.353,-1.807 -2.744,-3.411 -4.117,-4.859 -0.914,-0.763 -1.735,-1.182 -2.458,-1.259 H 4.574 c -0.877,0 -2.097,0.592 -3.659,1.773 -1.487,1.449 -2.326,2.516 -2.517,3.201 -0.38,0.763 -0.571,1.753 -0.571,2.974 0,4.231 1.982,11.035 5.946,20.412 3.431,8.499 5.146,13.417 5.146,14.752 0,0.38 -0.362,0.705 -1.086,0.972 -3.012,-8.273 -6.269,-15.611 -9.777,-22.013 -1.943,-3.546 -4.231,-7.053 -6.862,-10.52 -0.953,-1.107 -2.096,-2.327 -3.43,-3.66 -0.039,0 -0.576,-0.513 -1.658,-1.487 -3.195,-2.873 -5.718,-4.479 -7.433,-4.974 -1.144,-0.457 -2.573,-0.686 -4.289,-0.686 -1.677,0 -3.106,0.362 -4.288,1.086 -2.021,1.066 -3.936,3.138 -5.603,6.289 -1.06,2.005 -1.544,4.06 -1.544,6.118 0,4.993 2.916,10.825 8.748,17.496 2.553,2.554 4.365,4.136 5.432,4.746 2.667,1.868 4.954,2.802 6.862,2.802 h 0.4 c 1.905,0 4.021,-1.049 6.346,-3.144 l 0.228,-0.23 c 0.648,-0.686 1.182,-1.392 1.602,-2.115 0.343,-0.572 0.59,-1.107 0.743,-1.601 0,-0.039 0.019,-0.077 0.058,-0.115" />
      </g>
      <g
         transform="translate(373.731,147.382)"
         id="g625">
        <path
           inkscape:connector-curvature="0"
           id="path627"
           style="fill:#231f20;fill-opacity:1;fill-rule:nonzero;stroke:none"
           d="M 0,0 C 6.241,4.514 10.261,-6.227 4.387,-30.402 3.816,-32.75 3.644,-34.005 3.644,-34.119 v -0.057 c 0,-0.153 -2.703,-0.248 10.143,2.269 5.298,22.985 4.359,21.32 5.694,27.001 1.181,4.954 3.831,12.292 4.288,12.292 h 0.4 c 0.877,-0.114 2.039,-0.858 3.488,-2.23 1.373,-1.638 2.153,-2.954 2.344,-3.945 0.115,-0.571 0.172,-1.124 0.172,-1.658 0,-3.05 0.782,-3.686 -2,-15.616 -2.211,-9.912 -1.655,-8.011 -2.494,-12.585 l -0.056,-0.287 c 0.229,0 1.486,0.343 3.773,1.03 l 0.744,0.114 c 1.448,0 2.877,-1.449 4.288,-4.346 0.762,-1.906 1.143,-3.507 1.143,-4.801 v -0.458 c 0,-0.877 -0.21,-1.468 -0.629,-1.773 -1.639,-0.839 -5.775,-1.772 -12.407,-2.802 -0.115,0 -0.228,-0.419 -0.344,-1.258 -4.002,-18.105 -1.858,-12.647 -3.991,-21.643 -0.153,-0.877 -0.535,-1.315 -1.144,-1.315 h -0.4 c -1.792,0 -3.374,0.954 -4.746,2.859 -1.944,2.439 -2.916,4.384 -2.916,5.832 0,0.839 1.133,9.731 1.819,13.238 h -0.057 c -1.143,-0.076 -8.828,-0.896 -9.628,-0.782 -3.087,-13.036 -1.706,-7.979 -6.28,-22.844 -0.534,-1.677 -0.992,-2.515 -1.372,-2.515 -0.268,-0.077 -0.457,-0.116 -0.572,-0.116 h -0.171 c -1.411,0 -2.974,1.183 -4.689,3.545 -1.41,2.173 -2.115,3.851 -2.115,5.032 v 0.115 c 0,0.534 3.057,10.589 5.307,19.128 -3.43,0.952 -6.652,2.687 -9.662,5.202 -1.564,1.487 -2.574,2.649 -3.031,3.488 -1.106,1.753 -1.715,3.164 -1.83,4.232 0,0.265 0.058,0.399 0.172,0.399 0.228,0 1.087,-0.609 2.573,-1.829 1.448,-0.953 3.049,-1.716 4.803,-2.287 2.896,-0.877 5.469,-1.316 7.718,-1.316 h 0.687 c 0.38,0 0.572,0.116 0.572,0.344 2.706,11.701 1.519,5.702 3.425,16.566 C -2.588,-13.311 -2.765,-1.999 0,0" />
      </g>
      <g
         transform="translate(426.5957,137.6408)"
         id="g629">
        <path
           inkscape:connector-curvature="0"
           id="path631"
           style="fill:#231f20;fill-opacity:1;fill-rule:nonzero;stroke:none"
           d="m 0,0 c 0,-0.229 0.286,-0.935 0.857,-2.115 0.115,-0.306 0.191,-0.611 0.229,-0.915 0,-0.915 -0.953,-3.012 -2.858,-6.29 -1.373,-2.63 -2.44,-5.051 -3.202,-7.261 -1.068,-2.974 -1.602,-6.004 -1.602,-9.091 h 0.058 c 1.449,0.343 3.125,1.2 5.031,2.572 1.906,1.639 3.126,2.878 3.66,3.717 1.219,1.563 2.411,3.329 3.431,5.374 2.481,4.975 3.544,9.415 3.544,13.152 C 9.11,2.534 8.271,4.612 6.632,5.374 6.327,5.488 6.061,5.546 5.832,5.546 4.726,5.432 3.374,4.535 1.773,2.859 0.591,1.524 0,0.572 0,0 m 0.172,9.663 c 3.811,0 7.07,-1.239 9.777,-3.717 1.944,-2.134 2.916,-4.802 2.916,-8.005 v -0.629 c 0,-4.537 -1.604,-9.763 -5.203,-15.437 -1.031,-1.625 -2.44,-3.336 -4.117,-5.203 -3.469,-3.393 -6.69,-5.089 -9.663,-5.089 -2.402,0 -5.062,1.379 -7.947,4.174 -1.646,1.594 -2.649,3.392 -3.03,5.375 -0.229,1.104 -0.343,2.077 -0.343,2.916 v 0.972 c 0,2.249 0.591,4.726 1.771,7.432 0.039,0.191 0.058,0.362 0.058,0.515 0,0.152 -0.306,0.629 -0.915,1.429 -0.19,0.38 -0.286,0.762 -0.286,1.144 v 0.058 c 0,1.486 1.58,4.295 5.032,8.175 1.594,1.793 3.005,3 4.117,3.716 2.276,1.466 4.897,2.174 7.833,2.174" />
      </g>
      <g
         transform="translate(449.5244,150.2189)"
         id="g633">
        <path
           inkscape:connector-curvature="0"
           id="path635"
           style="fill:#231f20;fill-opacity:1;fill-rule:nonzero;stroke:none"
           d="m 0,0 c 1.41,0 3.188,-1.263 5.203,-3.887 1.012,-1.318 1.486,-2.745 1.486,-4.231 0,-0.687 -0.324,-2.345 -0.972,-4.975 L 5.66,-13.607 c 0.038,-0.078 0.076,-0.115 0.115,-0.115 0.762,0.686 1.715,1.773 2.859,3.259 3.353,3.697 5.812,5.547 7.375,5.547 h 0.057 c 1.639,0 3.525,-0.992 5.661,-2.974 1.638,-1.677 2.459,-3.602 2.459,-5.774 v -0.172 c 0,-0.763 -0.058,-1.544 -0.172,-2.345 4.231,5.147 7.28,7.72 9.149,7.72 h 0.057 c 1.637,0 3.506,-0.973 5.603,-2.917 1.791,-1.792 2.687,-3.926 2.687,-6.403 v -0.515 c 0,-2.058 -1.339,-6.607 -3.602,-13.78 -0.407,-1.288 -0.668,-2.363 -0.858,-3.201 h 0.058 c 0.571,0.151 1.886,1.257 3.945,3.316 0.114,0.152 0.85,0.904 2.115,2.345 2.464,2.804 4.536,5.602 6.404,8.233 1.486,2.096 3.22,4.211 5.203,6.346 0.419,0.344 0.705,0.515 0.858,0.515 h 0.171 c 0.458,-0.306 0.686,-0.592 0.686,-0.858 v -0.171 c 0,-0.458 -1.524,-2.764 -4.573,-6.919 -3.431,-4.727 -6.843,-9.053 -10.236,-12.978 -3.507,-3.851 -6.041,-5.776 -7.604,-5.776 -1.182,0 -2.687,0.801 -4.517,2.402 -1.677,1.905 -2.516,3.982 -2.516,6.232 v 0.286 c 0,2.439 1.258,6.88 3.431,13.436 0.604,1.82 0.858,2.859 0.858,3.088 -0.039,0 -0.058,0.018 -0.058,0.057 -0.686,-0.191 -2.478,-1.83 -5.374,-4.917 -0.153,-0.191 -1.506,-1.773 -4.059,-4.746 -1.373,-4.422 -2.364,-7.738 -2.974,-9.949 0,-0.724 -0.362,-1.887 -1.086,-3.487 -0.84,-1.41 -1.736,-2.116 -2.688,-2.116 h -0.171 c -0.725,0 -1.868,0.667 -3.431,2.001 -1.792,1.945 -2.687,4.155 -2.687,6.633 0,2.592 1.262,7.628 3.831,15.094 1.024,2.976 1.544,4.65 1.544,5.031 h -0.057 c -0.496,0 -2.288,-1.62 -5.375,-4.859 -3.393,-4.041 -5.317,-6.746 -5.775,-8.119 -0.61,-1.449 -1.525,-4.459 -2.744,-9.034 -1.144,-3.812 -2.021,-5.812 -2.63,-6.003 -0.496,-0.419 -0.954,-0.629 -1.373,-0.629 -1.067,0.152 -2.287,0.781 -3.659,1.886 -1.715,1.715 -2.573,3.64 -2.573,5.776 v 0.171 c 0,1.219 1.125,6.346 3.374,15.38 2.019,7.966 3.582,13.284 4.688,15.953 C -1.411,-0.553 -0.763,0 0,0" />
      </g>
      <g
         transform="translate(523.1675,140.5568)"
         id="g637">
        <path
           inkscape:connector-curvature="0"
           id="path639"
           style="fill:#231f20;fill-opacity:1;fill-rule:nonzero;stroke:none"
           d="m 0,0 c -1.83,-0.382 -4.117,-1.696 -6.861,-3.945 -1.983,-1.907 -3.393,-3.393 -4.232,-4.46 0.495,-0.267 1.087,-0.343 1.773,-0.229 l 1.029,0.229 c 2.02,0.533 3.964,1.83 5.832,3.887 C -1.164,-2.955 -0.343,-1.449 0,0 m -13.151,-11.093 c -1.067,-1.41 -1.931,-2.683 -2.572,-3.83 -2,-3.574 -2.974,-6.385 -2.974,-8.405 0,-1.183 0.667,-1.944 2.001,-2.287 0.762,-0.192 1.524,-0.285 2.287,-0.285 3.05,0 6.156,1.18 9.321,3.545 2.095,1.371 5.419,4.007 9.776,8.118 2.903,2.736 5.944,5.989 9.492,9.377 1.268,1.211 2.115,1.867 2.458,2.058 0.457,-0.267 0.705,-0.534 0.743,-0.8 V -3.66 c 0,-0.457 -1.677,-2.382 -5.031,-5.774 -3.469,-3.66 -6.404,-6.88 -8.805,-9.663 -3.165,-3.507 -5.679,-6.006 -7.548,-7.49 -3.123,-2.481 -5.68,-3.793 -7.661,-3.945 -0.649,-0.115 -1.41,-0.172 -2.287,-0.172 -3.888,0 -7.255,2.353 -9.835,7.205 -1.104,2.076 -1.6,4.173 -1.6,6.231 0,5.07 2.791,11.051 8.804,17.553 2.124,2.297 3.622,3.583 4.346,4.003 3.125,2.363 5.718,3.545 7.776,3.545 h 0.457 C -1.944,7.833 0.266,6.708 2.63,4.46 4.193,2.781 5.069,1.105 5.26,-0.572 5.526,-2.897 4.459,-5.471 2.058,-8.29 0,-10.502 -2.097,-11.874 -4.231,-12.407 c -2.745,-0.839 -5.718,-0.401 -8.92,1.314" />
      </g>
      <g
         transform="translate(539.2706,103.6574)"
         id="g641">
        <path
           inkscape:connector-curvature="0"
           id="path643"
           style="fill:#231f20;fill-opacity:1;fill-rule:nonzero;stroke:none"
           d="m 0,0 c 0.794,0.697 1.203,1.468 1.203,1.564 0,0.168 0.12,0.53 -0.288,0.53 H 0.65 Z M 3.489,1.685 C 3.489,0.77 2.069,-0.914 1.323,-1.42 L 0.794,-1.732 c 0.626,-0.722 1.781,-1.974 2.238,-1.974 0.577,0 -1.372,-0.914 -2.069,-0.914 -0.409,0 -1.323,0.914 -1.949,1.708 -0.337,-1.011 -0.699,-1.708 -0.914,-1.708 -0.602,0 -1.565,1.155 -1.565,1.516 0,0.409 1.011,3.609 1.516,5.438 -0.145,0.097 -0.24,0.265 -0.288,0.361 -0.409,0.457 -0.409,0.65 -0.506,0.867 0,0.144 0,0.144 0.048,0.144 0.409,-0.097 0.867,-0.049 1.252,0 0.216,0.096 0.577,0.168 0.673,0.168 h 0.096 c 0,0 0.722,0.097 1.781,0.097 1.973,0 2.382,-1.42 2.382,-2.286 M 7.026,0.096 c 0,2.84 -2.021,5.438 -5.774,5.438 -5.078,0 -7.894,-2.863 -7.894,-6.256 0,-3.802 2.671,-5.992 5.463,-5.992 5.847,0 8.205,3.61 8.205,6.81 m 2.985,0.049 c 0.048,-6.787 -5.102,-9.747 -10.829,-9.747 -5.101,0 -9.12,3.996 -9.12,8.688 0,5.702 5.872,9.047 11.358,9.047 5.486,0 8.614,-3.585 8.591,-7.988" />
      </g>
      <g
         transform="translate(521.3863,476.8049)"
         id="g645">
        <path
           inkscape:connector-curvature="0"
           id="path647"
           style="fill:#231f20;fill-opacity:1;fill-rule:nonzero;stroke:none"
           d="m 0,0 3.477,-11.589 c 0.097,-0.322 0.348,-0.573 0.669,-0.67 l 11.59,-3.477 c 0.949,-0.285 0.949,-1.628 0,-1.912 l -11.59,-3.477 c -0.321,-0.097 -0.572,-0.349 -0.669,-0.67 L 0,-33.384 c -0.285,-0.949 -1.628,-0.949 -1.913,0 l -3.477,11.589 c -0.096,0.321 -0.348,0.573 -0.669,0.67 l -11.589,3.477 c -0.949,0.284 -0.949,1.627 0,1.912 l 11.589,3.477 c 0.321,0.097 0.573,0.348 0.669,0.67 L -1.913,0 C -1.628,0.949 -0.285,0.949 0,0" />
      </g>
      <g
         transform="translate(484.5547,470.0373)"
         id="g649">
        <path
           inkscape:connector-curvature="0"
           id="path651"
           style="fill:#231f20;fill-opacity:1;fill-rule:nonzero;stroke:none"
           d="m 0,0 0.928,-3.091 c 0.096,-0.322 0.347,-0.574 0.669,-0.67 l 3.091,-0.927 c 0.949,-0.285 0.949,-1.628 0,-1.913 L 1.597,-7.528 C 1.275,-7.625 1.024,-7.876 0.928,-8.198 L 0,-11.289 c -0.285,-0.949 -1.628,-0.949 -1.913,0 l -0.927,3.091 c -0.097,0.322 -0.348,0.573 -0.669,0.67 l -3.092,0.927 c -0.948,0.285 -0.948,1.628 0,1.913 l 3.092,0.927 c 0.321,0.096 0.572,0.348 0.669,0.67 L -1.913,0 C -1.628,0.948 -0.285,0.948 0,0" />
      </g>
      <g
         transform="translate(497.4014,448.3088)"
         id="g653">
        <path
           inkscape:connector-curvature="0"
           id="path655"
           style="fill:#231f20;fill-opacity:1;fill-rule:nonzero;stroke:none"
           d="m 0,0 1.854,-6.18 c 0.097,-0.321 0.348,-0.572 0.669,-0.669 l 6.18,-1.854 c 0.949,-0.285 0.949,-1.628 0,-1.913 L 2.523,-12.47 C 2.202,-12.566 1.951,-12.818 1.854,-13.139 L 0,-19.319 c -0.285,-0.948 -1.628,-0.948 -1.913,0 l -1.854,6.18 c -0.096,0.321 -0.348,0.573 -0.669,0.669 l -6.18,1.854 c -0.948,0.285 -0.948,1.628 0,1.913 l 6.18,1.854 c 0.321,0.097 0.573,0.348 0.669,0.669 L -1.913,0 C -1.628,0.949 -0.285,0.949 0,0" />
      </g>
      <g
         transform="translate(521.8565,455.1965)"
         id="g657">
        <path
           inkscape:connector-curvature="0"
           id="path659"
           style="fill:#231f20;fill-opacity:1;fill-rule:nonzero;stroke:none"
           d="m 0,0 c 46.89,-50.148 26.56,-88.102 14.745,-108.29 -0.601,-1.027 0.776,-2.054 1.591,-1.186 l 0.027,0.029 c 0.525,0.559 1.462,0.344 1.687,-0.388 0.744,-2.415 1.199,-4.92 1.352,-7.443 0.051,-0.832 1.026,-1.257 1.652,-0.707 3.376,2.967 6.312,6.435 8.679,10.256 0.381,0.614 1.269,0.627 1.672,0.026 l 0.579,-0.864 c 0.37,-0.553 1.162,-0.591 1.596,-0.086 2.108,2.456 3.947,5.143 5.475,7.996 0.319,0.597 1.139,0.701 1.603,0.208 1.314,-1.399 2.454,-2.961 3.387,-4.639 0.377,-0.679 1.363,-0.662 1.738,0.019 l 4.796,8.706 c 0.346,0.627 1.219,0.697 1.66,0.134 l 0.202,-0.257 c 0.455,-0.58 1.357,-0.483 1.687,0.176 1.345,2.693 1.658,5.86 1.721,8.904 0.468,22.783 -10.396,59.869 -52.451,90.203 z" />
      </g>
      <g
         transform="translate(518.7442,257.3918)"
         id="g661">
        <path
           inkscape:connector-curvature="0"
           id="path663"
           style="fill:#231f20;fill-opacity:1;fill-rule:nonzero;stroke:none"
           d="m 0,0 c -17.974,-11.595 -38.296,-17.798 -58.725,-23.352 -0.447,-0.121 -0.897,-0.236 -1.348,-0.343 -0.45,-0.107 -0.932,-0.206 -1.369,-0.051 -0.286,0.101 -0.522,0.303 -0.776,0.468 -0.682,0.445 -1.492,0.638 -2.285,0.825 -7.294,1.717 -14.173,5.063 -20.932,8.293 -4.119,1.968 -8.199,4.017 -12.252,6.117 -2.241,1.161 -9.013,4.776 -10.168,5.404 -0.746,0.407 -2.394,1.763 -3.217,1.763 -22.529,12.426 -42.18,25.009 -49.931,31.924 1.368,1.508 2.934,2.917 4.663,4.242 1.107,-0.67 2.233,-1.31 3.388,-1.894 5.059,-2.56 10.893,-4.672 16.617,-3.363 0.324,0.074 0.644,0.165 0.96,0.267 0.078,0.023 0.155,0.047 0.23,0.072 l 0.024,0.009 c 0.129,0.044 0.256,0.092 0.381,0.143 2.551,0.999 4.565,2.965 4.11,6.157 -0.392,2.748 -3.616,4.878 -5.416,6.766 -0.494,0.517 -0.986,1.034 -1.479,1.552 2.867,1.06 5.864,2.049 8.947,2.988 1.157,-0.114 5.242,-0.577 9.852,-1.799 6.996,-1.854 11.934,-4.58 14.282,-7.883 0.312,-0.44 0.805,-0.674 1.306,-0.674 0.321,0 0.645,0.096 0.926,0.296 0.721,0.512 0.89,1.511 0.378,2.232 -4.084,5.749 -12.993,8.581 -19.432,9.925 6.569,1.785 13.392,3.408 20.155,5.014 2.955,0.702 5.948,1.413 8.938,2.141 0.227,-0.126 0.484,-0.204 0.761,-0.206 0.209,-0.002 21.009,-0.247 27.076,-9.346 0.308,-0.463 0.816,-0.713 1.334,-0.713 0.304,0 0.613,0.087 0.886,0.269 0.736,0.49 0.934,1.484 0.444,2.22 -4.303,6.454 -14.174,9.04 -21.37,10.078 2.061,0.541 4.101,1.095 6.106,1.666 3.364,0.957 6.446,1.993 9.284,3.09 0.056,-0.124 0.11,-0.249 0.167,-0.373 1.053,-2.309 1.923,-5.594 4.233,-6.979 2.001,-1.2 5.063,-0.66 7.013,0.548 4.526,2.803 4.935,10.242 4.745,15.406 0.822,0.605 1.594,1.217 2.333,1.833 0.19,-0.089 0.401,-0.144 0.624,-0.151 0.232,-0.009 23.192,-0.944 28.714,-10.142 0.3,-0.501 0.83,-0.777 1.374,-0.777 0.281,0 0.565,0.073 0.823,0.228 0.758,0.455 1.003,1.439 0.548,2.197 -5.285,8.805 -22.495,11.016 -28.923,11.54 9.508,9.599 10.496,19.759 11.032,25.351 0.519,5.4 12.423,-3.971 14.199,-5.241 C -13.062,92.227 -5.694,86.235 1.475,80.044 20.323,63.766 33.387,49.386 35.025,43.152 30.48,26.769 18.377,11.854 0,0 m -55.441,70.245 c -0.616,-4.286 -2.185,-9.282 -2.599,-9.067 -0.102,0.053 -1.525,-0.345 -1.546,-0.414 -0.205,-0.709 -1.156,-0.19 -1.932,0.191 -1.51,0.739 -1.776,1.848 -2.522,3.43 -0.179,0.382 -2.086,4.476 -2.086,4.476 -1.09,2.161 -2.385,4.215 -4.25,5.665 0,0 -0.012,0.006 -0.026,0.006 -0.139,0.072 -0.432,-0.058 -0.732,-0.199 -0.386,-0.122 -0.777,-0.248 -0.788,-0.222 0.9,-2.187 1.841,-4.358 2.798,-6.521 -3.184,-1.283 -6.6,-2.453 -10.266,-3.497 -7.733,-2.2 -16.022,-4.17 -24.039,-6.073 -13.126,-3.117 -25.888,-6.148 -36.814,-10.169 l -3.429,3.599 c -0.06,0.064 -1.546,-0.414 -1.546,-0.414 0.035,-1.449 0.799,-2.961 1.843,-4.392 l 2.547,-2.924 c 0.763,-0.769 1.512,-1.466 2.138,-2.05 1.169,-1.092 2.453,-2.097 3.242,-3.52 0.516,-0.93 1.301,-2.767 0.992,-3.963 -0.19,0.044 -1.403,-1.782 -2.049,-2.244 -5.429,-0.687 -10.871,2.039 -15.445,4.634 -0.468,0.266 -0.929,0.546 -1.385,0.831 l -3.536,2.394 c -2.886,2.057 -5.724,4.194 -8.936,5.67 -0.091,0.042 -0.507,-0.105 -0.886,-0.238 -0.22,-0.059 -0.44,-0.118 -0.661,-0.177 1.311,-2.86 3.805,-4.715 6.265,-6.567 0.388,-0.292 0.787,-0.57 1.183,-0.852 -2.32,-1.796 -4.381,-3.748 -6.134,-5.893 -0.525,-0.643 -0.472,-1.582 0.124,-2.161 5.414,-5.261 22.207,-17.179 51.721,-33.457 8.858,-4.886 17.829,-9.586 26.974,-13.912 7.633,-3.611 15.432,-6.333 23.281,-9.332 0.803,-0.307 1.626,-0.617 2.485,-0.63 0.892,-0.014 1.753,0.294 2.592,0.599 10.447,3.789 21.403,5.895 31.88,9.713 9.669,3.525 19.08,7.836 27.9,13.153 0.588,0.354 2.061,1.682 2.716,1.682 7.964,5.07 15.402,11.06 21.676,18.135 2.835,3.196 5.427,6.612 7.688,10.238 2.306,3.699 4.809,6.923 7.461,10.373 1.12,1.456 2.088,3.029 2.883,4.685 0.153,0.316 0.302,0.662 0.24,1.007 -0.067,0.367 -0.354,0.646 -0.623,0.905 -0.522,0.504 -1.014,1.027 -1.482,1.564 -1.46,1.675 -2.696,3.496 -3.965,5.349 -8.683,12.677 -21.2,23.103 -32.917,32.889 -4.237,3.539 -8.557,6.981 -12.941,10.336 -4.754,3.637 -9.584,7.195 -14.604,10.458 -2.038,1.324 -4.11,2.61 -6.262,3.742 -0.953,0.501 -1.987,1.184 -3.006,1.464 -0.596,0.164 -5.245,0.171 -5.366,-0.552 -0.263,-1.561 -0.55,-3.118 -0.773,-4.685 -0.618,-4.331 -1.651,-11.581 -7.051,-18.901 -1.79,-2.427 -3.949,-4.693 -6.446,-6.805 -0.653,5.448 -2.209,11.221 -5.175,15.62 -0.034,0.05 -1.547,-0.401 -1.547,-0.414 0.217,-6.067 2.501,-11.866 3.257,-17.881 z m 46.56,-8.42 c -0.854,0.23 -1.732,-0.277 -1.962,-1.13 -0.229,-0.854 0.277,-1.733 1.131,-1.962 17.867,-4.806 26.277,-23.45 26.389,-23.704 0.263,-0.6 0.851,-0.958 1.468,-0.958 0.214,0 0.432,0.043 0.641,0.134 0.81,0.356 1.179,1.299 0.825,2.109 -0.362,0.827 -9.082,20.29 -28.492,25.511 M -34.268,36.006 c -0.854,0.231 -1.732,-0.277 -1.962,-1.13 -0.229,-0.855 0.277,-1.732 1.131,-1.962 C -17.2,28.101 -8.792,9.398 -8.709,9.21 c 0.263,-0.601 0.851,-0.958 1.467,-0.958 0.215,0 0.432,0.043 0.641,0.135 0.81,0.354 1.18,1.299 0.825,2.108 -0.362,0.826 -9.082,20.291 -28.492,25.511 M -65.572,17.912 c -0.855,0.227 -1.733,-0.277 -1.962,-1.131 -0.23,-0.853 0.276,-1.732 1.13,-1.962 17.868,-4.805 26.278,-23.449 26.39,-23.703 0.263,-0.6 0.85,-0.959 1.468,-0.959 0.214,0 0.432,0.043 0.641,0.135 0.81,0.354 1.179,1.299 0.824,2.108 -0.361,0.827 -9.082,20.291 -28.491,25.512 m 22.201,33.492 c 0.209,-0.002 21,-0.234 27.075,-9.346 0.309,-0.463 0.816,-0.713 1.334,-0.713 0.305,0 0.613,0.087 0.886,0.269 0.736,0.49 0.935,1.485 0.444,2.22 -7.009,10.512 -28.795,10.769 -29.72,10.772 -0.879,0.002 -1.605,-0.71 -1.61,-1.591 -0.006,-0.885 0.707,-1.606 1.591,-1.611 m -8.033,-26.566 c 0.309,-0.463 0.817,-0.713 1.334,-0.713 0.305,0 0.613,0.087 0.886,0.269 0.736,0.49 0.935,1.484 0.445,2.22 -7.009,10.512 -28.796,10.769 -29.72,10.772 -0.88,0.003 -1.605,-0.71 -1.61,-1.591 -0.006,-0.884 0.706,-1.606 1.589,-1.611 0.21,-10e-4 21.01,-0.247 27.076,-9.346 m -57.45,-1.085 c -0.882,0.072 -1.653,-0.587 -1.724,-1.469 -0.07,-0.881 0.587,-1.652 1.469,-1.723 0.046,-0.003 4.761,-0.392 10.187,-1.831 6.996,-1.854 11.934,-4.58 14.282,-7.883 0.312,-0.44 0.805,-0.674 1.306,-0.674 0.321,0 0.645,0.096 0.926,0.296 0.72,0.511 0.89,1.511 0.378,2.232 -6.633,9.336 -26.003,10.986 -26.824,11.052" />
      </g>
    </g>
  </g>
</svg>
