<?xml version="1.0" encoding="UTF-8" standalone="no"?>
<svg
   xmlns:dc="http://purl.org/dc/elements/1.1/"
   xmlns:cc="http://creativecommons.org/ns#"
   xmlns:rdf="http://www.w3.org/1999/02/22-rdf-syntax-ns#"
   xmlns:svg="http://www.w3.org/2000/svg"
   xmlns="http://www.w3.org/2000/svg"
   xmlns:sodipodi="http://sodipodi.sourceforge.net/DTD/sodipodi-0.dtd"
   xmlns:inkscape="http://www.inkscape.org/namespaces/inkscape"
   inkscape:version="1.0beta2 (2b71d25, 2019-12-03)"
   sodipodi:docname="bc-ST.svg"
   width="85mm"
   height="55mm"
   viewBox="0 0 85 55"
   version="1.1"
   id="SVGRoot">
  <defs
     id="defs106">
    <clipPath
       clipPathUnits="userSpaceOnUse"
       id="clipPath167">
      <path
         d="M 0,305.297 H 360.263 V 0 H 0 Z"
         id="path165"
         inkscape:connector-curvature="0" />
    </clipPath>
  </defs>
  <sodipodi:namedview
     inkscape:snap-text-baseline="false"
     inkscape:window-maximized="0"
     inkscape:window-y="23"
     inkscape:window-x="0"
     inkscape:window-height="799"
     inkscape:window-width="1440"
     showgrid="false"
     inkscape:document-rotation="0"
     inkscape:current-layer="layer1"
     inkscape:document-units="mm"
     inkscape:cy="163.15144"
     inkscape:cx="48.917055"
     inkscape:zoom="1.3287798"
     inkscape:pageshadow="2"
     inkscape:pageopacity="0.0"
     borderopacity="1.0"
     bordercolor="#666666"
     pagecolor="#ffffff"
     id="base" />
  <metadata
     id="metadata109">
    <rdf:RDF>
      <cc:Work
         rdf:about="">
        <dc:format>image/svg+xml</dc:format>
        <dc:type
           rdf:resource="http://purl.org/dc/dcmitype/StillImage" />
        <dc:title />
      </cc:Work>
    </rdf:RDF>
  </metadata>
  <g
     id="layer1"
     inkscape:groupmode="layer"
     inkscape:label="Layer 1">
    <g
       id="g163"
       clip-path="url(#clipPath167)"
       transform="matrix(0.11933958,0,0,-0.11933958,-0.79708958,38.217325)">
      <g
         id="g169"
         transform="translate(111.1336,186.446)">
        <path
           d="m 0,0 h 0.306 c 2.47,0 4.663,-1.891 6.685,-5.616 1.127,-2.074 1.719,-5.03 1.719,-8.901 0,-5.706 -1.344,-14.768 -3.973,-27.201 -0.334,-1.579 -0.496,-2.407 -0.496,-2.483 v -0.038 c 0,-0.102 0.191,-0.166 0.572,-0.191 1.401,0 6.393,0.84 14.977,2.521 3.539,15.358 5.755,24.934 6.647,28.729 0.789,3.31 1.438,5.705 1.948,7.182 0.306,0.688 0.611,1.031 0.917,1.031 h 0.267 c 0.586,-0.076 1.363,-0.573 2.331,-1.49 0.917,-1.095 1.438,-1.974 1.566,-2.636 0.076,-0.382 0.115,-0.751 0.115,-1.107 0,-2.038 -0.931,-7.043 -2.789,-15.014 -1.478,-6.622 -2.497,-11.461 -3.057,-14.517 l -0.038,-0.191 c 0.154,0 0.994,0.229 2.522,0.687 l 0.497,0.076 c 0.967,0 1.922,-0.967 2.865,-2.903 0.509,-1.273 0.764,-2.343 0.764,-3.209 v -0.305 c 0,-0.587 -0.14,-0.981 -0.42,-1.185 -1.096,-0.56 -3.859,-1.184 -8.291,-1.872 -0.076,0 -0.152,-0.28 -0.229,-0.84 -2.674,-12.098 -4.725,-21.152 -6.15,-27.163 -0.102,-0.585 -0.358,-0.878 -0.764,-0.878 h -0.268 c -1.197,0 -2.254,0.637 -3.171,1.91 -1.299,1.63 -1.948,2.929 -1.948,3.897 0,0.561 0.483,2.903 1.452,7.029 1.706,7.335 2.788,12.174 3.247,14.517 h -0.038 c -0.765,-0.051 -2.713,-0.318 -5.845,-0.802 -2.955,-0.433 -5.439,-0.649 -7.45,-0.649 -0.739,0 -1.375,0.038 -1.91,0.114 -2.063,-8.71 -4.575,-18.047 -7.679,-27.964 -0.351,-1.122 -0.663,-1.682 -0.917,-1.682 -0.179,-0.05 -0.305,-0.076 -0.382,-0.076 h -0.115 c -0.942,0 -1.987,0.79 -3.132,2.368 -0.942,1.453 -1.414,2.574 -1.414,3.362 v 0.077 c 0,0.357 0.514,2.506 1.643,6.418 2.027,7.021 3.883,13.358 5.386,19.063 -2.291,0.637 -4.444,1.796 -6.456,3.477 -1.044,0.993 -1.719,1.769 -2.024,2.33 -0.74,1.171 -1.146,2.114 -1.223,2.827 0,0.178 0.039,0.268 0.115,0.268 0.152,0 0.726,-0.408 1.719,-1.223 0.967,-0.637 2.037,-1.146 3.209,-1.528 1.935,-0.586 3.654,-0.879 5.157,-0.879 h 0.459 c 0.254,0 0.382,0.077 0.382,0.23 1.808,7.818 3.348,15.357 4.622,22.616 0.993,6.086 1.49,10.34 1.49,12.76 0,1.528 -0.191,2.393 -0.573,2.597 L 2.674,-6.418 H 2.636 C 1.974,-6.47 0.829,-6.954 -0.726,-7.984 -1.58,-8.55 -2.827,-9.679 -4.508,-11.308 c 0,-0.026 -0.204,-0.23 -0.611,-0.611 -1.299,-1.452 -2.191,-2.611 -2.674,-3.477 -0.841,-1.248 -1.656,-2.814 -2.445,-4.699 -0.969,-2.598 -1.452,-4.992 -1.452,-7.182 0,-1.656 0.284,-3.25 0.955,-4.737 0.291,-0.644 0.942,-1.452 1.91,-2.445 1.605,-1.452 2.407,-2.268 2.407,-2.445 -0.204,-0.179 -0.446,-0.293 -0.726,-0.344 H -7.45 c -0.84,0 -2.05,0.687 -3.629,2.063 -3.413,3.361 -5.119,7.564 -5.119,12.607 v 0.878 c 0,3.973 1.468,8.051 4.24,12.34 0.702,1.086 1.732,2.394 3.133,3.897 1.273,1.298 2.283,2.21 3.018,2.751 C -3.374,-0.923 -1.452,0 0,0"
           style="fill:#231f20;fill-opacity:1;fill-rule:nonzero;stroke:none"
           id="path171"
           inkscape:connector-curvature="0" />
      </g>
      <g
         id="g173"
         transform="translate(158.4881,173.7238)">
        <path
           d="m 0,0 h 0.42 c 2.496,0 4.712,-1.286 6.647,-3.858 0.535,-0.841 0.803,-1.49 0.803,-1.949 0,-0.586 -0.458,-1.095 -1.375,-1.528 h -0.23 c -0.152,0 -0.318,0.191 -0.496,0.574 -0.23,0.254 -0.573,0.382 -1.032,0.382 -1.528,0 -3.404,-0.855 -5.501,-2.713 -1.093,-0.968 -1.826,-1.815 -2.292,-2.445 -1.027,-1.389 -1.872,-2.649 -2.484,-3.82 -0.866,-1.58 -1.703,-3.482 -2.444,-5.73 -0.369,-1.118 -0.535,-1.809 -0.535,-2.063 v -0.116 h 0.114 c 0.509,0.077 1.846,1.109 4.011,3.095 1.554,1.605 2.79,3.056 3.707,4.356 0.993,1.502 1.693,2.763 2.101,3.781 0.712,2.14 1.375,3.515 1.986,4.126 0.382,0.306 0.764,0.459 1.146,0.459 h 0.306 c 0.84,0 1.858,-0.549 3.056,-1.643 0.993,-1.07 1.49,-2.038 1.49,-2.903 0,-1.275 -0.962,-4.147 -3.095,-8.52 -0.814,-1.669 -1.286,-2.649 -1.337,-2.979 h 0.077 c 0.306,0 1.566,1.196 3.782,3.59 2.088,2.394 3.976,4.635 5.501,6.839 1.057,1.527 2.044,2.949 3.057,4.203 0.615,0.76 1.069,1.145 1.375,1.145 h 0.153 c 0.356,-0.051 0.535,-0.203 0.535,-0.458 v -0.191 c 0,-1.07 -2.853,-5.316 -8.673,-12.645 -2.884,-3.633 -5.106,-5.426 -6.609,-5.426 -0.866,0 -1.872,0.51 -3.018,1.529 -0.993,1.018 -1.49,2.279 -1.49,3.782 0,0.331 0.038,0.815 0.115,1.452 -0.917,-1.223 -1.962,-2.471 -3.133,-3.744 -1.656,-1.656 -2.687,-2.585 -3.094,-2.789 -0.663,-0.407 -1.376,-0.611 -2.14,-0.611 -1.375,0 -2.623,0.713 -3.743,2.139 -1.58,1.783 -2.369,3.871 -2.369,6.265 0,2.852 1.137,6.142 3.362,9.895 0.692,1.168 1.687,2.439 2.979,3.82 C -5.448,-1.58 -2.674,0 0,0"
           style="fill:#231f20;fill-opacity:1;fill-rule:nonzero;stroke:none"
           id="path175"
           inkscape:connector-curvature="0" />
      </g>
      <g
         id="g177"
         transform="translate(176.7874,173.7238)">
        <path
           d="M 0,0 C 0.942,0 2.129,-0.844 3.476,-2.597 4.153,-3.478 4.47,-4.431 4.47,-5.424 4.47,-5.883 4.253,-6.991 3.82,-8.748 L 3.782,-9.092 c 0.025,-0.051 0.051,-0.076 0.076,-0.076 0.51,0.458 1.146,1.184 1.911,2.177 2.24,2.47 3.883,3.706 4.928,3.706 h 0.038 c 1.095,0 2.355,-0.663 3.782,-1.987 1.095,-1.121 1.643,-2.407 1.643,-3.858 v -0.115 c 0,-0.509 -0.039,-1.031 -0.115,-1.566 2.827,3.438 4.864,5.157 6.113,5.157 h 0.038 c 1.095,0 2.343,-0.649 3.743,-1.948 1.198,-1.198 1.796,-2.623 1.796,-4.279 v -0.344 c 0,-1.375 -0.894,-4.414 -2.406,-9.207 -0.272,-0.861 -0.447,-1.579 -0.574,-2.139 h 0.039 c 0.382,0.101 1.26,0.841 2.636,2.216 0.076,0.102 0.568,0.605 1.413,1.566 1.646,1.874 3.031,3.744 4.279,5.501 0.993,1.401 2.152,2.814 3.477,4.241 0.279,0.229 0.47,0.344 0.572,0.344 h 0.115 c 0.306,-0.204 0.458,-0.396 0.458,-0.573 v -0.115 c 0,-0.305 -1.018,-1.847 -3.056,-4.623 -2.292,-3.158 -4.572,-6.049 -6.838,-8.672 -2.344,-2.572 -4.037,-3.858 -5.081,-3.858 -0.79,0 -1.796,0.535 -3.019,1.605 -1.12,1.272 -1.68,2.661 -1.68,4.164 v 0.191 c 0,1.629 0.84,4.597 2.292,8.977 0.403,1.216 0.573,1.911 0.573,2.063 -0.026,0 -0.038,0.013 -0.038,0.039 -0.459,-0.128 -1.656,-1.223 -3.591,-3.286 -0.102,-0.127 -1.007,-1.184 -2.712,-3.17 -0.918,-2.956 -1.58,-5.171 -1.987,-6.648 0,-0.484 -0.242,-1.261 -0.726,-2.33 -0.561,-0.942 -1.159,-1.414 -1.796,-1.414 H 9.971 c -0.485,0 -1.249,0.446 -2.292,1.337 -1.198,1.299 -1.796,2.776 -1.796,4.432 0,1.731 0.844,5.097 2.559,10.085 0.684,1.988 1.032,3.107 1.032,3.362 H 9.436 c -0.332,0 -1.528,-1.083 -3.591,-3.247 -2.267,-2.7 -3.553,-4.508 -3.859,-5.425 -0.407,-0.968 -1.019,-2.98 -1.834,-6.036 -0.764,-2.547 -1.35,-3.884 -1.756,-4.011 -0.332,-0.281 -0.638,-0.421 -0.917,-0.421 -0.714,0.102 -1.529,0.523 -2.445,1.261 -1.147,1.146 -1.72,2.432 -1.72,3.859 v 0.114 c 0,0.815 0.752,4.241 2.254,10.276 1.35,5.324 2.393,8.877 3.133,10.66 C -0.943,-0.369 -0.51,0 0,0"
           style="fill:#231f20;fill-opacity:1;fill-rule:nonzero;stroke:none"
           id="path179"
           inkscape:connector-curvature="0" />
      </g>
      <g
         id="g181"
         transform="translate(218.4286,173.7624)">
        <path
           d="M 0,0 H 0.076 C 2.419,0 4.24,-1.324 5.54,-3.973 5.692,-4.381 5.769,-4.763 5.769,-5.119 V -5.54 c 0,-0.713 -0.256,-1.197 -0.765,-1.451 -0.254,-0.128 -0.458,-0.191 -0.61,-0.191 -0.205,0 -0.459,0.382 -0.765,1.146 -0.051,0.585 -0.153,0.879 -0.306,0.879 H 3.209 c -0.51,-0.052 -1.134,-0.396 -1.872,-1.032 -0.968,-1.019 -1.732,-2.28 -2.292,-3.782 -0.637,-1.605 -0.956,-3.171 -0.956,-4.699 0,-1.375 0.379,-3.801 1.032,-7.296 0.242,-1.297 0.344,-2.421 0.344,-3.363 v -0.305 c 0,-2.547 -0.955,-4.241 -2.865,-5.081 -0.535,-0.178 -1.007,-0.268 -1.414,-0.268 h -0.497 c -1.197,0 -2.406,0.434 -3.628,1.299 -1.274,1.146 -2.038,2 -2.293,2.56 -0.585,0.789 -0.98,1.668 -1.185,2.636 0,0.254 -0.012,0.382 -0.038,0.382 0,0.713 0.358,1.069 1.07,1.069 h 0.076 c 0.561,0 1.198,-0.611 1.911,-1.834 0.255,-0.254 0.523,-0.381 0.802,-0.381 0.789,0 1.491,0.369 2.101,1.107 0.56,0.79 0.841,1.58 0.841,2.369 0,0.942 -0.319,3.018 -0.955,6.227 -0.306,2.012 -0.458,3.387 -0.458,4.126 0,2.012 0.432,4.165 1.298,6.457 1.197,2.47 2.725,4.074 4.584,4.813 C -0.854,-0.051 -0.458,0 0,0"
           style="fill:#231f20;fill-opacity:1;fill-rule:nonzero;stroke:none"
           id="path183"
           inkscape:connector-curvature="0" />
      </g>
      <g
         id="g185"
         transform="translate(229.2401,181.8615)">
        <path
           d="m 0,0 c 1.808,6.851 3.082,11.538 3.82,14.059 0.739,2.393 1.365,4.263 1.949,5.578 0.342,0.77 0.814,1.145 1.375,1.145 0.662,0 1.528,-0.407 2.598,-1.222 1.477,-1.35 2.216,-2.585 2.216,-3.706 0,-0.866 -0.872,-4.558 -2.599,-11.079 -0.485,-1.833 -0.942,-3.604 -1.375,-5.31 0.612,-0.051 1.248,-0.114 1.911,-0.191 2.063,-0.128 3.82,-0.191 5.272,-0.191 5.119,0 8.277,0.764 9.474,2.292 0.152,0.077 0.242,0.115 0.268,0.115 0.356,0 0.649,-0.905 0.878,-2.713 v -0.496 c 0,-1.325 -0.854,-2.394 -2.56,-3.209 -1.527,-0.637 -3.744,-0.955 -6.647,-0.955 -1.706,0 -4.966,0.267 -9.78,0.802 -3.184,-12.276 -5.374,-20.846 -6.571,-25.711 -0.025,0 -0.038,-0.089 -0.038,-0.267 1.502,0.916 3.315,2.815 5.539,5.616 1.205,1.517 2.581,3.415 4.241,5.616 0.764,1.013 1.643,1.935 2.559,2.827 0.128,0.101 0.242,0.165 0.345,0.19 0.381,-0.229 0.572,-0.458 0.572,-0.687 0,-0.357 -0.904,-1.757 -2.712,-4.202 -1.732,-2.446 -3.861,-5.336 -6.571,-8.52 -1.146,-1.346 -2.305,-2.47 -3.4,-3.438 -1.019,-0.993 -1.936,-1.49 -2.75,-1.49 -0.79,0 -1.847,0.598 -3.171,1.795 -1.121,1.453 -1.681,2.98 -1.681,4.585 0,2.267 1.616,9.197 4.736,20.821 0.335,1.246 0.65,2.445 0.956,3.591 -1.02,0.05 -1.974,0.076 -2.865,0.076 -2.802,0 -4.547,-0.357 -5.234,-1.07 -0.178,-0.255 -0.268,-0.458 -0.268,-0.61 v -0.039 c 0,-0.051 0.09,-0.331 0.268,-0.84 V -7.029 C -9.27,-7.106 -9.296,-7.144 -9.321,-7.144 h -0.038 c -0.306,0.077 -0.656,0.579 -0.994,1.528 -0.162,0.455 -0.242,0.904 -0.268,1.337 v 0.497 c 0,1.299 0.663,2.216 1.987,2.751 C -7.054,-0.344 -4.763,0 -1.757,0 Z"
           style="fill:#231f20;fill-opacity:1;fill-rule:nonzero;stroke:none"
           id="path187"
           inkscape:connector-curvature="0" />
      </g>
      <g
         id="g189"
         transform="translate(261.2162,179.7985)">
        <path
           d="m 0,0 c 0,-0.535 1.299,-1.007 3.896,-1.414 0.815,2.572 1.223,4.61 1.223,6.113 v 0.267 c 0,0.968 -0.204,1.529 -0.611,1.681 H 4.355 C 3.54,6.647 2.24,4.782 0.344,1.108 0.119,0.672 0,0.306 0,0 m -15.128,-18.032 c -0.026,-0.051 -0.052,-0.09 -0.077,-0.114 0.33,-0.179 0.726,-0.23 1.184,-0.153 l 0.688,0.153 c 1.35,0.356 2.648,1.222 3.896,2.597 0.866,1.044 1.414,2.05 1.644,3.018 -1.172,-0.255 -2.653,-1.063 -4.394,-2.483 -0.154,-0.126 -0.316,-0.283 -0.497,-0.458 -0.478,-0.465 -0.904,-0.879 -1.26,-1.261 -0.382,-0.408 -0.778,-0.841 -1.184,-1.299 m 10.696,5.922 c 0.077,-0.281 0.125,-0.549 0.153,-0.803 0.168,-1.554 -0.535,-3.273 -2.139,-5.157 -1.375,-1.477 -2.776,-2.394 -4.203,-2.751 -1.834,-0.56 -3.82,-0.267 -5.96,0.879 -0.662,-0.789 -1.362,-1.872 -2.101,-3.247 -1.044,-2.089 -1.566,-3.693 -1.566,-4.813 v -0.116 c 0,-0.738 0.356,-1.222 1.07,-1.451 0.509,-0.153 1.095,-0.229 1.757,-0.229 2.012,0 4.049,0.751 6.112,2.254 0.408,0.152 1.223,0.865 2.446,2.139 1.757,2.037 3.195,4.077 4.393,6.074 2.693,4.492 5.272,9.69 7.564,15.702 -1.808,0.356 -3.044,0.7 -3.706,1.031 -0.763,0.254 -1.592,0.815 -2.483,1.681 -1.045,1.223 -1.566,2.546 -1.566,3.973 v 0.573 c 0,1.401 0.53,2.909 1.49,4.584 0.317,0.555 0.98,1.35 2.025,2.369 1.146,1.121 2.534,1.681 4.164,1.681 h 0.115 c 1.12,0 1.973,-0.217 2.559,-0.649 C 7.5,10.544 8.405,8.926 8.405,6.762 8.405,5.081 7.715,2.54 6.38,-0.879 6.25,-1.209 6.112,-1.58 5.959,-1.987 c 1.58,-0.739 2.814,-1.973 3.707,-3.705 0.61,-1.274 0.916,-2.484 0.916,-3.63 v -0.534 c 0,-1.707 -0.713,-4.394 -2.139,-8.061 -1.86,-4.865 -3.261,-8.8 -4.203,-11.805 -0.051,-0.128 -0.102,-0.293 -0.153,-0.497 1.732,1.782 3.372,3.753 5.005,5.845 2.329,2.986 4.22,5.537 5.654,7.679 0.672,1.005 1.337,1.782 1.948,2.369 0.153,0.076 0.255,0.114 0.306,0.114 h 0.191 c 0.254,0 0.446,-0.127 0.574,-0.382 v -0.076 c 0,-0.179 -0.405,-0.907 -1.223,-2.178 -2.841,-4.414 -5.701,-8.64 -8.672,-12.607 -0.905,-1.207 -1.834,-2.279 -2.751,-3.247 -0.611,-0.509 -1.16,-0.789 -1.643,-0.84 h -0.42 c -0.586,0 -1.401,0.395 -2.445,1.184 -0.993,0.968 -1.554,1.681 -1.681,2.139 -0.255,0.51 -0.382,1.172 -0.382,1.987 0,2.827 1.324,7.373 3.973,13.638 2.292,5.679 3.438,8.965 3.438,9.857 0,0.254 -0.242,0.471 -0.725,0.649 -2.013,-5.527 -4.189,-10.43 -6.533,-14.708 -1.298,-2.369 -2.827,-4.712 -4.584,-7.029 -0.638,-0.739 -1.402,-1.554 -2.293,-2.445 -0.026,0 -0.385,-0.343 -1.108,-0.994 -2.134,-1.92 -3.82,-2.992 -4.966,-3.323 -0.764,-0.306 -1.719,-0.459 -2.865,-0.459 -1.121,0 -2.076,0.243 -2.865,0.726 -1.351,0.713 -2.63,2.096 -3.744,4.202 -0.709,1.34 -1.032,2.713 -1.032,4.088 0,3.337 1.948,7.233 5.845,11.69 1.706,1.707 2.916,2.763 3.629,3.172 1.782,1.247 3.311,1.871 4.585,1.871 h 0.267 c 1.274,0 2.687,-0.701 4.241,-2.101 l 0.152,-0.153 c 0.433,-0.458 0.79,-0.93 1.071,-1.413 0.228,-0.383 0.394,-0.74 0.496,-1.07 0,-0.026 0.012,-0.051 0.038,-0.076"
           style="fill:#231f20;fill-opacity:1;fill-rule:nonzero;stroke:none"
           id="path191"
           inkscape:connector-curvature="0" />
      </g>
      <g
         id="g193"
         transform="translate(150.7,140.901)">
        <path
           d="M 0,0 C 4.17,3.016 6.856,-4.161 2.931,-20.314 2.55,-21.882 2.434,-22.721 2.434,-22.797 v -0.038 c 0,-0.102 -1.806,-0.166 6.778,1.516 3.539,15.357 2.913,14.245 3.804,18.04 0.79,3.311 2.56,8.214 2.865,8.214 h 0.268 c 0.586,-0.077 1.362,-0.573 2.33,-1.49 0.917,-1.095 1.439,-1.974 1.566,-2.636 0.077,-0.382 0.116,-0.751 0.116,-1.108 0,-2.038 0.522,-2.463 -1.337,-10.434 -1.477,-6.622 -1.106,-5.353 -1.666,-8.409 l -0.038,-0.191 c 0.152,0 0.993,0.229 2.521,0.687 l 0.497,0.077 c 0.967,0 1.923,-0.968 2.865,-2.904 0.509,-1.273 0.764,-2.343 0.764,-3.209 v -0.305 c 0,-0.586 -0.141,-0.981 -0.42,-1.184 -1.096,-0.561 -3.859,-1.184 -8.29,-1.872 -0.077,0 -0.153,-0.281 -0.23,-0.841 -2.674,-12.097 -1.241,-8.45 -2.667,-14.461 -0.102,-0.586 -0.357,-0.879 -0.764,-0.879 h -0.268 c -1.197,0 -2.253,0.637 -3.17,1.91 -1.299,1.63 -1.949,2.929 -1.949,3.897 0,0.561 0.758,6.502 1.216,8.845 H 7.187 c -0.764,-0.051 -5.899,-0.598 -6.434,-0.522 -2.063,-8.71 -1.139,-5.331 -4.195,-15.264 -0.357,-1.12 -0.663,-1.681 -0.917,-1.681 -0.179,-0.051 -0.306,-0.076 -0.382,-0.076 h -0.115 c -0.942,0 -1.987,0.789 -3.132,2.368 -0.943,1.452 -1.414,2.573 -1.414,3.362 v 0.077 c 0,0.356 2.043,7.075 3.546,12.78 -2.292,0.636 -4.444,1.796 -6.456,3.476 -1.045,0.994 -1.719,1.77 -2.025,2.331 -0.739,1.171 -1.146,2.114 -1.223,2.827 0,0.178 0.039,0.268 0.115,0.268 0.153,0 0.726,-0.408 1.719,-1.223 0.968,-0.637 2.038,-1.146 3.209,-1.528 1.936,-0.586 3.655,-0.879 5.158,-0.879 h 0.458 c 0.255,0 0.382,0.077 0.382,0.229 1.809,7.819 1.016,3.81 2.29,11.069 C -1.729,-8.894 -1.848,-1.336 0,0"
           style="fill:#231f20;fill-opacity:1;fill-rule:nonzero;stroke:none"
           id="path195"
           inkscape:connector-curvature="0" />
      </g>
      <g
         id="g197"
         transform="translate(186.0218,134.3918)">
        <path
           d="m 0,0 c 0,-0.152 0.191,-0.625 0.573,-1.414 0.077,-0.203 0.127,-0.407 0.153,-0.61 0,-0.612 -0.637,-2.013 -1.91,-4.203 -0.917,-1.757 -1.63,-3.375 -2.139,-4.852 -0.714,-1.986 -1.071,-4.011 -1.071,-6.074 h 0.04 c 0.967,0.229 2.087,0.802 3.361,1.719 1.273,1.095 2.088,1.923 2.445,2.483 0.815,1.044 1.611,2.225 2.292,3.591 1.658,3.324 2.369,6.291 2.369,8.787 C 6.087,1.693 5.526,3.082 4.432,3.591 4.228,3.667 4.05,3.706 3.897,3.706 3.158,3.629 2.254,3.031 1.185,1.911 0.395,1.019 0,0.382 0,0 m 0.115,6.457 c 2.546,0 4.724,-0.829 6.533,-2.483 1.299,-1.427 1.948,-3.21 1.948,-5.349 v -0.42 c 0,-3.032 -1.072,-6.524 -3.476,-10.315 -0.689,-1.086 -1.631,-2.229 -2.751,-3.476 -2.318,-2.268 -4.47,-3.401 -6.456,-3.401 -1.605,0 -3.383,0.922 -5.311,2.789 -1.1,1.065 -1.769,2.266 -2.024,3.591 -0.153,0.738 -0.229,1.388 -0.229,1.949 v 0.649 c 0,1.502 0.395,3.158 1.184,4.967 0.025,0.126 0.038,0.241 0.038,0.343 0,0.101 -0.204,0.42 -0.612,0.955 -0.126,0.254 -0.19,0.509 -0.19,0.765 v 0.038 c 0,0.993 1.055,2.87 3.361,5.462 1.066,1.199 2.008,2.005 2.751,2.483 1.521,0.979 3.272,1.453 5.234,1.453"
           style="fill:#231f20;fill-opacity:1;fill-rule:nonzero;stroke:none"
           id="path199"
           inkscape:connector-curvature="0" />
      </g>
      <g
         id="g201"
         transform="translate(201.3421,142.7965)">
        <path
           d="M 0,0 C 0.942,0 2.129,-0.844 3.476,-2.598 4.153,-3.479 4.47,-4.431 4.47,-5.425 4.47,-5.883 4.253,-6.991 3.82,-8.749 L 3.782,-9.092 c 0.025,-0.052 0.051,-0.077 0.076,-0.077 0.51,0.459 1.146,1.185 1.911,2.178 2.24,2.47 3.883,3.706 4.928,3.706 h 0.038 c 1.095,0 2.355,-0.663 3.782,-1.987 1.095,-1.121 1.643,-2.407 1.643,-3.858 v -0.115 c 0,-0.51 -0.039,-1.032 -0.115,-1.567 2.827,3.438 4.865,5.158 6.113,5.158 h 0.038 c 1.095,0 2.343,-0.65 3.744,-1.949 1.197,-1.197 1.795,-2.623 1.795,-4.278 v -0.344 c 0,-1.376 -0.894,-4.415 -2.406,-9.207 -0.272,-0.861 -0.447,-1.579 -0.574,-2.139 h 0.039 c 0.382,0.101 1.26,0.84 2.636,2.216 0.076,0.101 0.568,0.604 1.413,1.566 1.646,1.874 3.031,3.744 4.279,5.501 0.993,1.401 2.152,2.814 3.477,4.241 0.279,0.229 0.47,0.343 0.572,0.343 h 0.115 c 0.306,-0.204 0.459,-0.395 0.459,-0.573 v -0.114 c 0,-0.306 -1.019,-1.847 -3.057,-4.623 -2.292,-3.158 -4.572,-6.049 -6.838,-8.672 -2.344,-2.572 -4.037,-3.858 -5.081,-3.858 -0.79,0 -1.796,0.534 -3.019,1.604 -1.12,1.273 -1.68,2.661 -1.68,4.164 v 0.192 c 0,1.629 0.84,4.596 2.292,8.977 0.403,1.216 0.573,1.91 0.573,2.063 -0.025,0 -0.038,0.012 -0.038,0.038 -0.459,-0.128 -1.656,-1.222 -3.591,-3.285 -0.102,-0.128 -1.006,-1.185 -2.712,-3.171 -0.918,-2.955 -1.58,-5.171 -1.987,-6.647 0,-0.484 -0.242,-1.261 -0.726,-2.331 -0.561,-0.942 -1.159,-1.414 -1.796,-1.414 H 9.971 c -0.485,0 -1.248,0.446 -2.292,1.338 -1.198,1.299 -1.796,2.775 -1.796,4.432 0,1.731 0.844,5.096 2.56,10.084 0.683,1.989 1.031,3.108 1.031,3.363 H 9.436 c -0.331,0 -1.528,-1.083 -3.591,-3.247 -2.267,-2.7 -3.553,-4.508 -3.859,-5.426 -0.407,-0.967 -1.018,-2.979 -1.834,-6.035 -0.764,-2.547 -1.349,-3.884 -1.756,-4.011 -0.332,-0.281 -0.638,-0.421 -0.917,-0.421 -0.714,0.102 -1.529,0.523 -2.445,1.261 -1.147,1.146 -1.72,2.432 -1.72,3.858 v 0.115 c 0,0.814 0.752,4.24 2.254,10.276 1.35,5.323 2.394,8.876 3.133,10.659 C -0.943,-0.37 -0.51,0 0,0"
           style="fill:#231f20;fill-opacity:1;fill-rule:nonzero;stroke:none"
           id="path203"
           inkscape:connector-curvature="0" />
      </g>
      <g
         id="g205"
         transform="translate(250.5477,136.3405)">
        <path
           d="m 0,0 c -1.223,-0.255 -2.751,-1.134 -4.585,-2.636 -1.325,-1.274 -2.267,-2.267 -2.827,-2.98 0.331,-0.178 0.726,-0.23 1.184,-0.153 l 0.688,0.153 c 1.35,0.356 2.649,1.222 3.897,2.597 C -0.778,-1.975 -0.229,-0.968 0,0 m -8.787,-7.412 c -0.713,-0.942 -1.29,-1.793 -1.719,-2.559 -1.336,-2.388 -1.987,-4.266 -1.987,-5.616 0,-0.79 0.446,-1.299 1.337,-1.528 0.51,-0.128 1.018,-0.191 1.529,-0.191 2.037,0 4.112,0.789 6.227,2.368 1.4,0.917 3.621,2.679 6.532,5.425 1.94,1.828 3.972,4.002 6.342,6.265 0.847,0.81 1.413,1.248 1.643,1.376 0.305,-0.179 0.47,-0.357 0.496,-0.535 v -0.038 c 0,-0.306 -1.121,-1.592 -3.362,-3.859 -2.317,-2.445 -4.278,-4.597 -5.883,-6.456 -2.114,-2.344 -3.794,-4.012 -5.043,-5.005 -2.087,-1.657 -3.795,-2.533 -5.118,-2.635 -0.434,-0.078 -0.943,-0.116 -1.529,-0.116 -2.598,0 -4.847,1.573 -6.571,4.814 -0.737,1.388 -1.069,2.789 -1.069,4.164 0,3.387 1.865,7.384 5.882,11.728 1.419,1.535 2.42,2.394 2.904,2.675 2.088,1.579 3.821,2.369 5.196,2.369 h 0.305 c 1.376,0 2.853,-0.752 4.432,-2.255 C 2.801,1.858 3.387,0.738 3.514,-0.382 3.692,-1.936 2.979,-3.655 1.375,-5.54 0,-7.017 -1.401,-7.934 -2.827,-8.291 c -1.834,-0.56 -3.821,-0.267 -5.96,0.879"
           style="fill:#231f20;fill-opacity:1;fill-rule:nonzero;stroke:none"
           id="path207"
           inkscape:connector-curvature="0" />
      </g>
      <g
         id="g209"
         transform="translate(261.307,111.6857)">
        <path
           d="m 0,0 c 0.53,0.466 0.804,0.98 0.804,1.045 0,0.112 0.08,0.354 -0.193,0.354 H 0.435 Z m 2.331,1.125 c 0,-0.611 -0.949,-1.736 -1.447,-2.074 L 0.53,-1.158 c 0.419,-0.482 1.19,-1.319 1.496,-1.319 0.386,0 -0.917,-0.61 -1.383,-0.61 -0.273,0 -0.884,0.61 -1.302,1.141 -0.225,-0.675 -0.467,-1.141 -0.611,-1.141 -0.402,0 -1.045,0.772 -1.045,1.013 0,0.273 0.675,2.411 1.012,3.634 -0.096,0.064 -0.16,0.176 -0.192,0.241 -0.274,0.305 -0.274,0.434 -0.338,0.578 0,0.097 0,0.097 0.032,0.097 0.273,-0.064 0.579,-0.033 0.837,0 0.144,0.064 0.385,0.112 0.45,0.112 h 0.064 c 0,0 0.482,0.065 1.19,0.065 1.318,0 1.591,-0.949 1.591,-1.528 M 4.694,0.064 c 0,1.897 -1.35,3.634 -3.858,3.634 -3.393,0 -5.274,-1.913 -5.274,-4.18 0,-2.541 1.785,-4.004 3.65,-4.004 3.907,0 5.482,2.412 5.482,4.55 m 1.994,0.033 c 0.033,-4.535 -3.408,-6.513 -7.235,-6.513 -3.408,0 -6.093,2.67 -6.093,5.805 0,3.81 3.923,6.045 7.589,6.045 3.665,0 5.755,-2.395 5.739,-5.337"
           style="fill:#231f20;fill-opacity:1;fill-rule:nonzero;stroke:none"
           id="path211"
           inkscape:connector-curvature="0" />
      </g>
      <g
         id="g213"
         transform="translate(92.6449,222.7599)">
        <path
           d="m 0,0 c 4.818,7.583 10.515,14.616 16.994,20.895 -6.315,-25.931 -5.383,-34.892 -4.347,-44.808 2.646,0.624 5.673,1.066 9.033,1.163 -1.679,8.753 -3.729,17.528 3.422,42.061 0.636,2.181 5.195,11.59 -0.114,10.568 C 24.613,29.807 24.322,29.75 24.202,29.718 23.107,29.425 22.013,29.131 20.923,28.825 20.541,28.717 19.887,28.66 19.572,28.428 9.628,21.094 0.977,12.197 -6.101,2.2 c 0.016,0.005 0.029,0.012 0.044,0.017 l -3.525,-5.219 c -7.792,-12.361 -13.264,-26.182 -15.908,-40.695 -5.25,-28.81 0.988,-59.164 17.067,-83.63 14.554,-22.144 36.79,-38.763 62.092,-46.594 12.68,-3.924 26.027,-5.631 39.286,-4.997 6.689,0.32 13.344,1.235 19.876,2.709 8.024,1.809 16.089,3.956 23.813,6.807 27.416,10.12 50.232,30.704 63.16,56.907 1.125,2.279 2.771,4.967 2.434,7.609 -0.038,0.3 -0.11,0.521 -0.21,0.679 -0.374,0.597 -1.132,0.33 -1.925,0.178 -0.374,-0.072 -0.664,-0.128 -0.785,-0.161 -1.094,-0.293 -2.188,-0.587 -3.278,-0.893 -0.385,-0.107 -1.033,-0.165 -1.352,-0.397 -2.612,-1.904 -10.381,-6.276 -13.134,-7.953 -0.398,-1.094 -0.84,-2.171 -1.319,-3.232 2.51,1.192 10.057,5.055 12.476,6.422 -10.66,-24.152 -25.372,-53.904 -80.67,-63.542 -12.738,-2.22 -34.363,-1.897 -46.791,1.667 -24.64,7.067 -46.609,22.431 -61.603,43.233 -16.502,22.894 -24.121,51.727 -21.009,79.781 1.603,14.451 6.013,28.471 12.789,41.238 z"
           style="fill:#231f20;fill-opacity:1;fill-rule:nonzero;stroke:none"
           id="path215"
           inkscape:connector-curvature="0" />
      </g>
      <g
         id="g217"
         transform="translate(268.3358,260.8205)">
        <path
           d="m 0,0 3.73,-12.433 c 0.103,-0.344 0.374,-0.614 0.718,-0.718 l 12.433,-3.73 c 1.017,-0.306 1.017,-1.746 0,-2.052 L 4.448,-22.663 C 4.104,-22.767 3.833,-23.036 3.73,-23.381 L 0,-35.813 c -0.305,-1.019 -1.747,-1.019 -2.052,0 l -3.73,12.432 c -0.104,0.345 -0.373,0.614 -0.718,0.718 l -12.433,3.73 c -1.018,0.306 -1.018,1.746 0,2.052 l 12.433,3.73 c 0.345,0.104 0.614,0.374 0.718,0.718 L -2.052,0 C -1.747,1.018 -0.305,1.018 0,0"
           style="fill:#231f20;fill-opacity:1;fill-rule:nonzero;stroke:none"
           id="path219"
           inkscape:connector-curvature="0" />
      </g>
      <g
         id="g221"
         transform="translate(228.8246,253.5602)">
        <path
           d="m 0,0 0.995,-3.316 c 0.103,-0.345 0.373,-0.615 0.718,-0.719 l 3.316,-0.994 c 1.018,-0.306 1.018,-1.747 0,-2.053 L 1.713,-8.076 C 1.368,-8.18 1.098,-8.45 0.995,-8.794 L 0,-12.111 c -0.306,-1.017 -1.747,-1.017 -2.052,0 l -0.995,3.317 C -3.15,-8.45 -3.42,-8.18 -3.765,-8.076 l -3.316,0.994 c -1.018,0.306 -1.018,1.747 0,2.053 l 3.316,0.994 c 0.345,0.104 0.615,0.374 0.718,0.719 L -2.052,0 C -1.747,1.018 -0.306,1.018 0,0"
           style="fill:#231f20;fill-opacity:1;fill-rule:nonzero;stroke:none"
           id="path223"
           inkscape:connector-curvature="0" />
      </g>
      <g
         id="g225"
         transform="translate(242.6058,230.2506)">
        <path
           d="m 0,0 1.989,-6.629 c 0.103,-0.345 0.373,-0.615 0.718,-0.718 l 6.629,-1.989 c 1.018,-0.306 1.018,-1.747 0,-2.052 L 2.707,-13.377 C 2.362,-13.48 2.092,-13.75 1.989,-14.095 L 0,-20.724 c -0.305,-1.018 -1.747,-1.018 -2.052,0 l -1.989,6.629 c -0.103,0.345 -0.373,0.615 -0.718,0.718 l -6.629,1.989 c -1.018,0.305 -1.018,1.746 0,2.052 l 6.629,1.989 c 0.345,0.103 0.615,0.373 0.718,0.718 L -2.052,0 C -1.747,1.018 -0.305,1.018 0,0"
           style="fill:#231f20;fill-opacity:1;fill-rule:nonzero;stroke:none"
           id="path227"
           inkscape:connector-curvature="0" />
      </g>
    </g>
    <text
       id="text355"
       y="36.282436"
       x="7"
       style="font-style:normal;font-variant:normal;font-weight:normal;font-stretch:normal;font-size:1.76388999999999996px;line-height:1.25;font-family:Avenir;-inkscape-font-specification:'Avenir Normal';font-variant-ligatures:normal;font-variant-caps:normal;font-variant-numeric:normal;font-variant-east-asian:normal;stroke-width:0.264583;"
       xml:space="preserve"><tspan
         dx="0 0 0 0 0 0 0 0 0 0 0 0 0 0 0 0 -3.0068605e-09"
         style="font-style:normal;font-variant:normal;font-weight:normal;font-stretch:normal;font-size:1.76388998px;font-family:Avenir;-inkscape-font-specification:'Avenir Normal';font-variant-ligatures:normal;font-variant-caps:normal;font-variant-numeric:normal;font-variant-east-asian:normal;stroke-width:0.264583;"
         y="36.282436"
         x="7"
         id="tspan353"
         sodipodi:role="line">Текстиль для гостиниц и дома</tspan></text>
    <text
       id="text359"
       y="20.133656"
       x="41.517685"
       style="font-style:normal;font-variant:normal;font-weight:normal;font-stretch:normal;font-size:4.23332999999999959px;line-height:1.25;font-family:'Avenir Next';-inkscape-font-specification:'Avenir Next Normal';font-variant-ligatures:normal;font-variant-caps:normal;font-variant-numeric:normal;font-variant-east-asian:normal;stroke-width:0.264583;"
       xml:space="preserve"><tspan
         style="font-style:normal;font-variant:normal;font-weight:normal;font-stretch:normal;font-size:4.2333298px;font-family:'Avenir Next';-inkscape-font-specification:'Avenir Next Normal';font-variant-ligatures:normal;font-variant-caps:normal;font-variant-numeric:normal;font-variant-east-asian:normal;stroke-width:0.264583;"
         y="20.133656"
         x="41.517685"
         id="tspan357"
         sodipodi:role="line">Суворова Татьяна</tspan><tspan
         id="tspan423"
         style="font-style:normal;font-variant:normal;font-weight:normal;font-stretch:normal;font-size:4.2333298px;font-family:'Avenir Next';-inkscape-font-specification:'Avenir Next Normal';font-variant-ligatures:normal;font-variant-caps:normal;font-variant-numeric:normal;font-variant-east-asian:normal;stroke-width:0.264583;"
         y="25.425318"
         x="41.517685"
         sodipodi:role="line" /></text>
    <text
       id="text363"
       y="23.796837"
       x="41.982773"
       style="font-style:normal;font-variant:normal;font-weight:normal;font-stretch:normal;font-size:2.82222px;line-height:1.25;font-family:'Avenir Next';-inkscape-font-specification:'Avenir Next Normal';font-variant-ligatures:normal;font-variant-caps:normal;font-variant-numeric:normal;font-variant-east-asian:normal;stroke-width:0.264583"
       xml:space="preserve"><tspan
         style="font-style:normal;font-variant:normal;font-weight:normal;font-stretch:normal;font-size:2.82222px;font-family:'Avenir Next';-inkscape-font-specification:'Avenir Next Normal';font-variant-ligatures:normal;font-variant-caps:normal;font-variant-numeric:normal;font-variant-east-asian:normal;stroke-width:0.264583"
         y="23.796837"
         x="41.982773"
         id="tspan361"
         sodipodi:role="line">Директор по развитию</tspan></text>
    <text
       id="text367"
       y="36.836407"
       x="41.953079"
       style="font-style:normal;font-variant:normal;font-weight:normal;font-stretch:normal;font-size:2.46944000000000008px;line-height:1.25;font-family:'Avenir Next';-inkscape-font-specification:'Avenir Next Normal';font-variant-ligatures:normal;font-variant-caps:normal;font-variant-numeric:normal;font-variant-east-asian:normal;stroke-width:0.264583;"
       xml:space="preserve"><tspan
         style="font-style:normal;font-variant:normal;font-weight:normal;font-stretch:normal;font-size:2.46944007px;font-family:'Avenir Next';-inkscape-font-specification:'Avenir Next Normal';font-variant-ligatures:normal;font-variant-caps:normal;font-variant-numeric:normal;font-variant-east-asian:normal;stroke-width:0.264583;"
         y="36.836407"
         x="41.953079"
         id="tspan365"
         sodipodi:role="line">+7 916 210 05 17</tspan><tspan
         dx="0 0 0 0 0 0 0 0 0 0 1.7437602e-09"
         id="tspan427"
         style="font-style:normal;font-variant:normal;font-weight:normal;font-stretch:normal;font-size:2.46944007px;font-family:'Avenir Next';-inkscape-font-specification:'Avenir Next Normal';font-variant-ligatures:normal;font-variant-caps:normal;font-variant-numeric:normal;font-variant-east-asian:normal;stroke-width:0.264583;"
         y="40.235996"
         x="41.953079"
         sodipodi:role="line">sales@hamstertowels.ru </tspan><tspan
         id="tspan369"
         style="font-style:normal;font-variant:normal;font-weight:normal;font-stretch:normal;font-size:2.46944007px;font-family:'Avenir Next';-inkscape-font-specification:'Avenir Next Normal';font-variant-ligatures:normal;font-variant-caps:normal;font-variant-numeric:normal;font-variant-east-asian:normal;stroke-width:0.264583;"
         y="43.635582"
         x="41.953079"
         sodipodi:role="line">www.hamsterhome.ru</tspan></text>
  </g>
</svg>
